<svg xmlns="http://www.w3.org/2000/svg" viewBox="0 0 500 500"><ellipse cx="250" cy="416.24" rx="193.89" ry="11.32" fill="#f5f5f5"/><path d="M260.41 365.5H132.84a8.13 8.13 0 01-8-7.64L113.4 136.31a7.17 7.17 0 017.24-7.63h127.57a8.12 8.12 0 018 7.63l11.42 221.55a7.18 7.18 0 01-7.22 7.64z" fill="#55fb9b"/><path d="M260.41 365.5H132.84a8.13 8.13 0 01-8-7.64L113.4 136.31a7.17 7.17 0 017.24-7.63h127.57a8.12 8.12 0 018 7.63l11.42 221.55a7.18 7.18 0 01-7.22 7.64z" fill="#fff" opacity=".8"/><path fill="#55fb9b" d="M221.51 121.46h14.11v1h-14.11zm-10.06 0h5.17v1h-5.17zm54.45 229.98h-122a7.77 7.77 0 01-7.68-7.29l-10.92-211.9a6.86 6.86 0 016.93-7.3h122a7.77 7.77 0 017.67 7.3l10.92 211.9a6.85 6.85 0 01-6.92 7.29z"/><path d="M265.9 346.57h-122a2.92 2.92 0 01-2.81-2.68L130.16 132a2 2 0 01.54-1.55 2 2 0 011.52-.62h122a2.92 2.92 0 012.8 2.68L268 344.4a2 2 0 01-2.05 2.17zM132.22 130.08a1.79 1.79 0 00-1.34.54 1.84 1.84 0 00-.47 1.37l10.92 211.89a2.67 2.67 0 002.56 2.44h122a1.74 1.74 0 001.33-.54 1.76 1.76 0 00.47-1.37l-10.91-211.89a2.66 2.66 0 00-2.55-2.44z" fill="#fff"/><ellipse cx="196.09" cy="180.61" rx="36" ry="37.9" transform="rotate(-45.74 196.08 180.615)" fill="#fff" opacity=".3"/><path d="M226 180.61a28.71 28.71 0 01-2.87 14.24 28.07 28.07 0 01-25.47 15.65 31.75 31.75 0 01-27.08-15.65 30.78 30.78 0 01-4.34-14.24 28.09 28.09 0 0128.34-29.88A31.81 31.81 0 01226 180.61z" fill="#fff"/><path d="M223.1 194.85a28.07 28.07 0 01-25.47 15.65 31.75 31.75 0 01-27.08-15.65 45.16 45.16 0 0125.86-8 49.14 49.14 0 0126.69 8z" fill="#55fb9b"/><ellipse cx="195.56" cy="170.39" rx="12.97" ry="13.66" transform="rotate(-45.74 195.552 170.38)" fill="#55fb9b"/><path d="M248.41 269h-95.53a3.29 3.29 0 01-3.25-3.09l-.72-14a2.9 2.9 0 012.93-3.08h95.53a3.29 3.29 0 013.25 3.08l.72 14a2.9 2.9 0 01-2.93 3.09z" fill="#fff"/><path d="M219.16 241.1h-39.9A3.29 3.29 0 01176 238l-.15-3a2.9 2.9 0 012.93-3.09h39.89a3.29 3.29 0 013.25 3.09l.16 3a2.92 2.92 0 01-2.92 3.1zM234 336.31h-59.77a5.61 5.61 0 01-5.53-5.26l-.35-6.9a5 5 0 015-5.26h59.75a5.61 5.61 0 015.53 5.26l.35 6.9a5 5 0 01-4.98 5.26z" opacity=".3"/><path d="M250.16 302.86h-95.54a3.3 3.3 0 01-3.25-3.09l-.72-14a2.91 2.91 0 012.93-3.09h95.53a3.29 3.29 0 013.25 3.09l.73 14a2.92 2.92 0 01-2.93 3.09z" fill="#fff"/><path d="M165 258.91a3.22 3.22 0 01-3.25 3.42 3.64 3.64 0 01-3.59-3.42 3.21 3.21 0 013.24-3.42 3.65 3.65 0 013.6 3.42zm10.53 0a3.21 3.21 0 01-3.24 3.42 3.63 3.63 0 01-3.59-3.42 3.21 3.21 0 013.24-3.42 3.63 3.63 0 013.59 3.42zm10.47 0a3.21 3.21 0 01-3.24 3.42 3.65 3.65 0 01-3.6-3.42 3.22 3.22 0 013.25-3.42 3.64 3.64 0 013.59 3.42zm10.55 0a3.22 3.22 0 01-3.24 3.42 3.65 3.65 0 01-3.6-3.42 3.22 3.22 0 013.24-3.42 3.65 3.65 0 013.6 3.42zm-29.78 33.84a3.21 3.21 0 01-3.24 3.42 3.65 3.65 0 01-3.6-3.42 3.22 3.22 0 013.25-3.42 3.64 3.64 0 013.59 3.42zm10.51 0a3.22 3.22 0 01-3.24 3.42 3.65 3.65 0 01-3.6-3.42 3.21 3.21 0 013.24-3.42 3.65 3.65 0 013.6 3.42zm10.51 0a3.22 3.22 0 01-3.25 3.42 3.63 3.63 0 01-3.59-3.42 3.21 3.21 0 013.24-3.42 3.65 3.65 0 013.6 3.42zm10.5 0a3.21 3.21 0 01-3.24 3.42 3.65 3.65 0 01-3.6-3.42 3.22 3.22 0 013.25-3.42 3.63 3.63 0 013.59 3.42zm10.51 0a3.21 3.21 0 01-3.24 3.42 3.65 3.65 0 01-3.6-3.42 3.22 3.22 0 013.24-3.42 3.65 3.65 0 013.6 3.42zm10.51 0a3.22 3.22 0 01-3.25 3.42 3.64 3.64 0 01-3.59-3.42 3.21 3.21 0 013.24-3.42 3.65 3.65 0 013.6 3.42z" fill="#263238"/><path d="M333 176.62c.25.38.38.58.54.85l.45.74c.29.5.55 1 .8 1.49.5 1 1 2 1.4 3a55.2 55.2 0 012.16 6.09 63.77 63.77 0 012.38 12.54l.07.79a4.59 4.59 0 010 .48v.53a12.79 12.79 0 01-.12 2.08 17.14 17.14 0 01-1 3.73 25.81 25.81 0 01-3.46 6 42.89 42.89 0 01-9.31 8.81l-2.76-3.23a57.35 57.35 0 006.64-9.19 21 21 0 002-4.72 9.53 9.53 0 00.33-2.14 4.69 4.69 0 000-.93v-.21a1.3 1.3 0 000-.28l-.12-.7a79.26 79.26 0 00-2.72-11c-.58-1.79-1.29-3.52-2-5.21-.35-.85-.75-1.68-1.15-2.48l-.62-1.18-.31-.55-.26-.44z" fill="#803e3c"/><path d="M323.7 223.77l3.62 7.65 2.87-6.47s-2.55-5.6-6-5.08zm6.21 8.03l2.88-4.72-2.6-2.13-2.87 6.47 2.59.38z" fill="#7f3e3b"/><path d="M313.63 408.22a10.27 10.27 0 002.22-.3.22.22 0 00.15-.16.2.2 0 00-.09-.2c-.29-.19-2.83-1.83-3.81-1.39a.68.68 0 00-.39.56 1.13 1.13 0 00.33 1 2.37 2.37 0 001.59.49zm1.65-.59c-1.45.3-2.55.25-3-.14a.77.77 0 01-.21-.71c0-.17.1-.22.17-.25.54-.24 2.01.47 3.04 1.1z" fill="#55fb9b"/><path d="M315.8 407.92h.1a.22.22 0 00.1-.18c0-.1 0-2.51-.92-3.32a1.05 1.05 0 00-.84-.26.69.69 0 00-.67.55c-.19.95 1.33 2.75 2.13 3.21zm-1.43-3.39a.61.61 0 01.44.17 4.53 4.53 0 01.78 2.64c-.8-.64-1.75-2-1.63-2.57 0-.09.07-.21.32-.24zm-10.18-.39a.21.21 0 00-.14-.34c-.41 0-4-.17-4.82.71v.06a.63.63 0 00-.09.62 1.11 1.11 0 00.73.73c1.16.36 3.21-.95 4.33-1.76zm-4.66.63c.45-.48 2.43-.61 3.91-.59-1.55 1.06-2.84 1.56-3.49 1.36a.72.72 0 01-.48-.48.27.27 0 010-.25z" fill="#55fb9b"/><path d="M304.19 404.14a.23.23 0 000-.2c-.05-.08-1.17-2-2.49-2.4a1.45 1.45 0 00-1.14.14c-.48.28-.51.61-.45.82.26.93 2.81 1.75 3.91 1.74a.2.2 0 00.17-.1zm-3.59-2a.84.84 0 01.19-.14 1 1 0 01.84-.11c.87.23 1.68 1.35 2.05 1.9-1.19-.13-3-.86-3.15-1.42a.23.23 0 01.07-.24z" fill="#55fb9b"/><path d="M315.2 147.33c-1 5-3.16 15.81.31 19.13 0 0-1.36 5-10.59 5-10.16 0-4.85-5-4.85-5 5.54-1.32 5.4-5.44 4.43-9.3z" fill="#7f3e3b"/><path d="M298.28 135.61a.53.53 0 00.17 0 .4.4 0 00.18-.54 3.94 3.94 0 00-2.88-2.2.41.41 0 00-.44.35.4.4 0 00.35.44 3.14 3.14 0 012.26 1.77.4.4 0 00.36.18z" fill="#263238"/><path d="M295.25 140a18.26 18.26 0 01-2.92 4 2.91 2.91 0 002.33.74z" fill="#630f0f"/><path d="M296 138.87c-.08.67-.51 1.17-.94 1.12s-.73-.64-.65-1.31.51-1.17 1-1.12.66.64.59 1.31z" fill="#263238"/><path d="M295.54 137.62L294 137s.65 1.32 1.54.62z" fill="#263238"/><path fill="#7f3e3b" d="M313.02 402.24l-8.16 1.9-4.96-18.76 8.16-1.9 4.96 18.76zm12.52 5.48h-8.37l.65-19.39h8.38l-.66 19.39z"/><path d="M316.5 406.75h9.41a.67.67 0 01.67.58l1.07 7.44a1.34 1.34 0 01-1.34 1.49c-3.28-.05-4.86-.25-9-.25-2.55 0-6.27.27-9.78.27s-3.71-3.48-2.24-3.79c6.56-1.42 7.6-3.36 9.81-5.22a2.17 2.17 0 011.4-.52z" fill="#263238"/><path d="M304.14 402.89l8.55-3.93a.66.66 0 01.84.24l4.09 6.32a1.35 1.35 0 01-.6 1.91c-3 1.32-4.52 1.81-8.28 3.54-2.31 1.06-7 3.5-10.18 5s-4.82-1.61-3.62-2.51c5.37-4 6.91-6.87 8.14-9.48a2.14 2.14 0 011.06-1.09z" fill="#263238"/><path opacity=".2" d="M299.9 385.38l2.66 10.06 8.06-2.29-2.55-9.67-8.17 1.9zm26.3 2.95h-8.38l-.33 10h8.38l.33-10z"/><path d="M330 168.36c3.48.77 7.2 13.28 7.2 13.28l-9.84 10.47s-8.17-11.76-6.5-16.08c1.69-4.51 4.99-8.57 9.14-7.67z" fill="#263238"/><path d="M324.44 176.33c-1.76-1.61-2.95-1.13-3.76.15-.8 3.72 3.94 11.51 5.85 14.46.88-3.52 1.89-10.94-2.09-14.61z" opacity=".4"/><path d="M285.91 168.61s-4 1.4 4 50.55h34c-.57-13.84-.59-22.38 6-50.8a100.28 100.28 0 00-14.45-1.9 107.4 107.4 0 00-15.44 0c-6.59.61-14.11 2.15-14.11 2.15z" fill="#263238"/><path d="M285.6 187.47c.22 2.39.51 5.08.89 8.12 2.79-2.51 5.07-9.65 4.23-13.81a24.59 24.59 0 00-5.12 5.69z" opacity=".4"/><path d="M289.24 180a148.06 148.06 0 01-6.19 13.55 83.26 83.26 0 01-8 13l-.64.79-.32.39c-.11.13-.2.25-.37.43a12.44 12.44 0 01-2 1.76 16.3 16.3 0 01-4.18 2.08 30.53 30.53 0 01-8 1.42 59.36 59.36 0 01-15.16-1.35l.55-4.2c2.3 0 4.71 0 7-.19a56.44 56.44 0 006.86-.76 27 27 0 006.14-1.72 9.17 9.17 0 002.21-1.34 4.57 4.57 0 00.69-.72s.12-.16.2-.27l.23-.33.47-.66a99.14 99.14 0 006.69-12.11c2-4.25 4-8.66 5.83-13z" fill="#803e3c"/><path d="M285.91 168.61c-4.17 1-9.29 12.44-9.29 12.44l8.64 12.7s11.51-14.49 10.14-18.91c-1.4-4.61-4.4-7.47-9.49-6.23z" fill="#263238"/><path d="M247.33 208.51l-7.21-3.33-.72 7.17s6 1.77 9 0z" fill="#7f3e3b"/><path fill="#7f3e3b" d="M235.81 204.46l-.69 5.46 4.28 2.43.72-7.17-4.31-.72zm83.01-65.1c-1.53 8.17-2 11.67-6.68 15.38-7 5.58-16.75 1.92-17.69-6.54-.86-7.62 1.78-19.7 10.25-22a11.33 11.33 0 0114.12 13.16z"/><path d="M300.87 141.08c-.47 4.17-.65 15 8.51 15.34 11.21.41 14.57-9.17 13.57-13 5.84-4.75 6.68-12.92.12-19.17s-21-2.76-25 3.33c-5.07 7.55 2.8 13.5 2.8 13.5z" fill="#263238"/><path d="M312.1 126.68c-.54-4.4-.12-7.43 4-7.43s9.74 1.49 11.8 5.7 2.23 10.8-3.52 10.13-11.63-3.14-12.28-8.4z" fill="#55fb9b"/><path d="M318.48 125.62c-1-5.24 3.69-20 15.08-21 5.28-.45 7.72 5.23 5 6.17 5-.06 8.2 6.55 3.54 7.54 3.68 2.36 2.77 7.2-2.48 9.58-3.91 1.8-19.79 4.97-21.14-2.29z" fill="#263238"/><path d="M330.65 131.25c-3.67 0-7.5-.54-9.88-2.13a4.89 4.89 0 01-2.35-3.8.26.26 0 01.23-.27.24.24 0 01.27.23 4.46 4.46 0 002.13 3.43c4.53 3 15 2 18.26 1 2.82-.92 4.73-2.71 5.11-4.77a4.14 4.14 0 00-1.67-4 .24.24 0 010-.35.25.25 0 01.35 0 4.66 4.66 0 011.85 4.53c-.41 2.25-2.44 4.17-5.44 5.15a32.69 32.69 0 01-8.86.98z" fill="#263238"/><path d="M298.32 140a6.15 6.15 0 00-1.07 4.51c.33 2.1 2.37 2.24 3.85.9s2.77-3.76 1.68-5.5a2.62 2.62 0 00-4.46.09z" fill="#7f3e3b"/><path d="M298.89 219.16s4.86 57.49 9.91 89.89c4.07 26.17 7.29 87.34 7.29 87.34h11.42s4.06-59.34 2-85.22c-5.23-65.5 6.44-70.84-5.57-92z" fill="#55fb9b"/><path d="M313.27 240.89a55.8 55.8 0 00-10.79 16.28c1.33 12.92 2.91 27.26 4.59 39.82a110.38 110.38 0 006.2-56.1z" opacity=".4"/><path d="M290.9 218.8s-10.55 62.79-12.21 91.09c4.14 26.17 21.08 81.49 21.08 81.49l10.39-3.77s-5.75-60.32-12-76.83c14.07-47.37 24.41-59.35 21.4-91.62-7.21 0-28.66-.36-28.66-.36z" fill="#55fb9b"/><path fill="#263238" d="M298.38 394.14l14.04-3.81-.8-5.6-15.03 4.07 1.79 5.34zm16.14 2.48h14.55l.76-5.1-15.39-.52.08 5.62z"/><path d="M324.44 217.16l1.53 3.05c.12.24-.16.48-.55.48h-35.68c-.3 0-.56-.15-.58-.35l-.31-3c0-.21.25-.39.58-.39h34.45a.63.63 0 01.56.21z" fill="#55fb9b"/><path d="M324.44 217.16l1.53 3.05c.12.24-.16.48-.55.48h-35.68c-.3 0-.56-.15-.58-.35l-.31-3c0-.21.25-.39.58-.39h34.45a.63.63 0 01.56.21z" opacity=".5"/><path d="M319.81 221h.92c.19 0 .33-.1.32-.21l-.44-4c0-.12-.17-.21-.35-.21h-.93c-.18 0-.32.09-.31.21l.43 4c.02.13.18.21.36.21zm-12.38-29.12a.52.52 0 01-.49-.37c-3.26-12.06-10-22-13.27-23.5a1.14 1.14 0 00-.85-.14.5.5 0 11-.41-.91 2 2 0 011.68.14c3.46 1.64 10.3 11.44 13.72 23.77 2.45 0 6.23-.33 7.15-.41 1.14-1.36 9.52-11.84 6.39-23.31a.49.49 0 01.35-.61.5.5 0 01.61.35c3.49 12.76-6.63 24.27-6.74 24.38a.46.46 0 01-.32.17c-.05 0-5.04.44-7.82.44z" fill="#55fb9b"/><path d="M324 198.94c-5.45-10.21-7.68-10.93-8.65-14.21a17 17 0 013.1-5c-.66-.19-2.08-.47-3-.64.1-.45.21-.89.31-1.32a9.54 9.54 0 00-3 .14v-1a13 13 0 00-3.87-.25q.17.71.33 1.44c-1 .19-2.52.5-3.25.71a14.4 14.4 0 013.05 5.57c-2.94 5.05-14.36 37.51 4.22 40s16.2-15.22 10.76-25.44z" fill="#55fb9b"/><path d="M324 198.94c-5.45-10.21-7.68-10.93-8.65-14.21a17 17 0 013.1-5c-.66-.19-2.08-.47-3-.64.1-.45.21-.89.31-1.32a9.54 9.54 0 00-3 .14v-1a13 13 0 00-3.87-.25q.17.71.33 1.44c-1 .19-2.52.5-3.25.71a14.4 14.4 0 013.05 5.57c-2.94 5.05-14.36 37.51 4.22 40s16.2-15.22 10.76-25.44z" fill="#fff" opacity=".4"/><path d="M308.26 183.41a6.29 6.29 0 00-.15 1.57c0 .37 1 .62 2.11.73s5.77.29 5.62-.23.23-1.23.25-1.67-1.85-.46-3.42-.4-4.1-.56-4.41 0zM297.45 221h.92c.18 0 .32-.1.31-.21l-.43-4c0-.12-.17-.21-.36-.21H297c-.18 0-.32.09-.31.21l.43 4c-.02.13.14.21.33.21z" fill="#55fb9b"/></svg>