<svg xmlns="http://www.w3.org/2000/svg" viewBox="0 0 500 500"><defs><clipPath id="a"><path d="M142.84 197.52s-5.23 16.54-5.51 23.7S147.25 238 153 243.54s16 8 30.31 7.44 26.73-7.16 26.73-7.16-.27 43.81 0 54 1.11 117.67 1.11 117.67h97.55s-2.48-100.86-1.66-112.71 6.07-46.29 6.07-46.29 36.65 17.08 44.91 17.08 28.11-22 27.29-27.83-29.49-22.6-39.41-30.87-13.78-16.25-20.67-19.56-38-10.2-44.92-11-44.36 1.37-54.56 1.92-27.28 17.92-31.41 20.95a93.66 93.66 0 01-9.93 6.06s1.66-1.93-1.1-2.48a23.76 23.76 0 00-4.13-.55s-1.38-16-2.48-17.64-17.36-5.51-23.42-5-10.44 9.95-10.44 9.95z" fill="#fff" stroke="#263238" stroke-linecap="round" stroke-linejoin="round" stroke-width="1.143"/></clipPath><clipPath id="b"><path d="M256.2 114.78a47.51 47.51 0 01-6.18-9.42c-2.35-5-5.59-13.24.59-18.24s30-8.24 41.5-6.77 21.19 13.24 30.31 29.72 12.07 29.14 10 34.73-10.3 11.77-20 11.48-15.3-10.6-20.89-15.89-23-16.19-25.31-18.55a99.3 99.3 0 00-8.54-6.76z" fill="#fff" stroke="#263238" stroke-linecap="round" stroke-linejoin="round" stroke-width="1.143"/></clipPath><clipPath id="c"><path d="M299.76 143c0-.88-4.42-11.18-12.07-18.54s-22.37-9.12-27.37-8.83-7.36 2.65-7.36 2.65-5.29 19.43-7.94 26.2a27.53 27.53 0 00-.22 18.08 70.28 70.28 0 007.28 14.88c4.42 7.06 4.42 26.49 4.42 26.49s22.07-10 24.72-13.54 1.17-15.89 2.35-21.78a19.45 19.45 0 011.06-3.51 17.7 17.7 0 003.36-5.32s11.77-15.86 11.77-16.78z" fill="#fff" stroke="#263238" stroke-linecap="round" stroke-linejoin="round" stroke-width="1.143"/></clipPath><clipPath id="d"><path d="M206.57 174.93a15.42 15.42 0 0030.25-5.39z" fill="#fff" stroke="#263238" stroke-linecap="round" stroke-linejoin="round" stroke-width="1.143"/></clipPath><clipPath id="e"><path d="M177.84 128.91s-4.41 8.81-4.41 12.67v14.61s-17.08 17.91-17.91 22.59-3 16 0 16 17.09-13.51 18.19-16.26 7.71-20.94 7.71-20.94a14.82 14.82 0 011.93-2.48c1.1-1.11 1.38-8.27 1.38-8.27s3-.28 3-1.93V135c.03-2.24-9.89-6.09-9.89-6.09z" fill="#fff" stroke="#263238" stroke-linecap="round" stroke-linejoin="round" stroke-width="1.143"/></clipPath><clipPath id="f"><path d="M365.5 246.85s-24 4.13-21.49 9.37l.83 3.86s-17.36 22-16.54 22.87 32 19.29 33.07 19.29 20.67-35 24.8-41.89 4.69-13.22-.55-16.53-11-6.34-11-6.34" fill="#fff" stroke="#263238" stroke-linecap="round" stroke-linejoin="round" stroke-width="1.143"/></clipPath><clipPath id="g"><path d="M316.73 296.18s-2.76 3.58-5.51 5a29.27 29.27 0 00-10.2 9.64c-3.31 5-7.44 9.37-5 11.3a8.85 8.85 0 005 1.93s1.65 3.86 3.86 4.13a29.5 29.5 0 003.31.28s1.92 1.93 3 1.93H314s1.1 1.38 3.58 0 5-9.65 5.79-12.4.83-8.55.83-8.55l3.86-5.51-8.82-8.82z" fill="#fff" stroke="#263238" stroke-linecap="round" stroke-linejoin="round" stroke-width="1.143"/></clipPath><clipPath id="h"><path d="M298 146.27l7.95-8c4.25-4.25-3.21-12.5-5.91-15.55a56.33 56.33 0 00-23.31-15.58c-5.43-1.94-17.23-5.62-20.22 1.71l-5.3 12.94s14.42-1.17 26.78 5.3S298 146.27 298 146.27z" fill="#fff" stroke="#263238" stroke-linecap="round" stroke-linejoin="round" stroke-width="1.143"/></clipPath><clipPath id="i"><path d="M289.46 150.69s9.12-7.36 11.77-2.95-3.53 10.6-8.24 10.6-7.06-1.77-7.06-1.77" fill="#fff" stroke="#263238" stroke-linecap="round" stroke-linejoin="round" stroke-width="1.143"/></clipPath><clipPath id="j"><path d="M232.68 317.69h-97.39v106.38c0 6.4 21.89 11.59 48.9 11.59s48.9-5.19 48.9-11.59z" fill="#fff" stroke="#263238" stroke-linecap="round" stroke-linejoin="round" stroke-width="1.143"/></clipPath><clipPath id="k"><path d="M184.19 300.7c-12.58 0-25.42.82-37.7 3.74-6.86 1.64-19.36 5.1-16.45 15 1.3 4.42 6.41 6.12 10.31 7.52a81.46 81.46 0 0014.81 3.28 188 188 0 0029 2.07c12.59 0 25.44-.82 37.72-3.75 5-1.18 11.19-2.46 14.69-6.53a8.48 8.48 0 00-1-12.26c-4.14-3.14-9.89-4.46-14.85-5.57a149.75 149.75 0 00-24.06-3.12q-6.21-.38-12.47-.38z" fill="#fff" stroke="#263238" stroke-linecap="round" stroke-linejoin="round" stroke-width="1.143"/></clipPath><clipPath id="l"><ellipse cx="184.19" cy="313.97" rx="48.85" ry="10.39" fill="#fff" stroke="#263238" stroke-linecap="round" stroke-linejoin="round" stroke-width="1.143"/></clipPath><clipPath id="m"><path d="M325.41 340.9h-78.23v85.45c0 5.14 17.59 9.31 39.28 9.31s39.28-4.17 39.28-9.31z" fill="#fff" stroke="#263238" stroke-linecap="round" stroke-linejoin="round" stroke-width="1.143"/></clipPath><clipPath id="n"><path d="M286.46 327.26c-10.11 0-20.42.66-30.28 3-5.52 1.31-15.55 4.09-13.21 12 1 3.55 5.14 4.91 8.28 6a65.08 65.08 0 0011.89 2.74 151.63 151.63 0 0023.32 1.66c10.11 0 20.43-.66 30.3-3 4-.95 9-2 11.8-5.25a6.82 6.82 0 00-.81-9.85c-3.32-2.51-7.95-3.57-11.92-4.47a120.89 120.89 0 00-19.33-2.51q-5.01-.32-10.04-.32z" fill="#fff" stroke="#263238" stroke-linecap="round" stroke-linejoin="round" stroke-width="1.143"/></clipPath><clipPath id="o"><ellipse cx="286.46" cy="337.92" rx="39.24" ry="8.35" fill="#fff" stroke="#263238" stroke-linecap="round" stroke-linejoin="round" stroke-width="1.143"/></clipPath></defs><path d="M142.84 197.52s-5.23 16.54-5.51 23.7S147.25 238 153 243.54s16 8 30.31 7.44 26.73-7.16 26.73-7.16-.27 43.81 0 54 1.11 117.67 1.11 117.67h97.55s-2.48-100.86-1.66-112.71 6.07-46.29 6.07-46.29 36.65 17.08 44.91 17.08 28.11-22 27.29-27.83-29.49-22.6-39.41-30.87-13.78-16.25-20.67-19.56-38-10.2-44.92-11-44.36 1.37-54.56 1.92-27.28 17.92-31.41 20.95a93.66 93.66 0 01-9.93 6.06s1.66-1.93-1.1-2.48a23.76 23.76 0 00-4.13-.55s-1.38-16-2.48-17.64-17.36-5.51-23.42-5-10.44 9.95-10.44 9.95z" fill="#fff"/><g clip-path="url(#a)"><path d="M383.2 251.57c1.49-2.46 2.33-4.54 2.15-5.82-.83-5.79-29.49-22.6-39.41-30.87s-13.78-16.25-20.67-19.56-38-10.2-44.92-11a102.39 102.39 0 00-11-.11c8.15 8.4-14.2 23.53-9.41 23.93s26.29-2.87 38.61-8.21c0 0 14.79-.42 27.12 7 10.49 6.24 37.54 28.51 57.53 44.64z" fill="#55fb9b"/><path d="M334.73 266s-11.09-11.09-12.32-14 7-34.5 2.46-26.7a37.06 37.06 0 00-4.87 14.86s-5.35-20.54-5.76-15.61-.41 17.26-.41 17.26-19.3-22.19-16-12.33 7 21.36 7 21.36l-26.37 186.91 11.09-3.7 24.64-175.4zm-124.46-12.69s.41-44-.83-41.9-2.46 11.5-2.46 11.5-6.16-14.38-7-9.45 1.23 15.61 1.23 15.61-7.4 2.88-27.52 6.16-16 0-4.11-5.75 21-18.89 21-25.06-4.11-23.48-16.84-25.91-39.44 22.63-41.49 27.56 15.58-2.07 15.58-2.07 2.46 11.51 3.28 15.2-4.51 9.86-4.93 11.5 9.86-2.05 9-.82-10.68 9-8.62 12.74 18.93 10.28 34.13 12.38a87.28 87.28 0 0029.58-1.69z" fill="#55fb9b"/><path d="M210.27 253.31s.41-44-.83-41.9-2.46 11.5-2.46 11.5-6.16-14.38-7-9.45 1.23 15.61 1.23 15.61-7.4 2.88-27.52 6.16-16 0-4.11-5.75 21-18.89 21-25.06-4.11-23.48-16.84-25.91-39.44 22.63-41.49 27.56 15.58-2.07 15.58-2.07 2.46 11.51 3.28 15.2-4.51 9.86-4.93 11.5 9.86-2.05 9-.82-10.68 9-8.62 12.74 18.93 10.28 34.13 12.38a87.28 87.28 0 0029.58-1.69zM334.73 266s-11.09-11.09-12.32-14 7-34.5 2.46-26.7a37.06 37.06 0 00-4.87 14.86s-5.35-20.54-5.76-15.61-.41 17.26-.41 17.26-19.3-22.19-16-12.33 7 21.36 7 21.36l-26.37 186.91 11.09-3.7 24.64-175.4z" fill="#fff" opacity=".5"/><path d="M211.18 415.5h97.56s-.77-31.1-1.31-60.78l-96.8-6.46c.28 32.03.55 67.24.55 67.24z" fill="#263238"/><path d="M383.2 251.57c1.49-2.46 2.33-4.54 2.15-5.82-.83-5.79-29.49-22.6-39.41-30.87s-13.78-16.25-20.67-19.56-38-10.2-44.92-11a102.39 102.39 0 00-11-.11c8.15 8.4-14.2 23.53-9.41 23.93s26.29-2.87 38.61-8.21c0 0 14.79-.42 27.12 7 10.49 6.24 37.54 28.51 57.53 44.64z" fill="#fff" opacity=".5"/></g><path d="M142.84 197.52s-5.23 16.54-5.51 23.7S147.25 238 153 243.54s16 8 30.31 7.44 26.73-7.16 26.73-7.16-.27 43.81 0 54 1.11 117.67 1.11 117.67h97.55s-2.48-100.86-1.66-112.71 6.07-46.29 6.07-46.29 36.65 17.08 44.91 17.08 28.11-22 27.29-27.83-29.49-22.6-39.41-30.87-13.78-16.25-20.67-19.56-38-10.2-44.92-11-44.36 1.37-54.56 1.92-27.28 17.92-31.41 20.95a93.66 93.66 0 01-9.93 6.06s1.66-1.93-1.1-2.48a23.76 23.76 0 00-4.13-.55s-1.38-16-2.48-17.64-17.36-5.51-23.42-5-10.44 9.95-10.44 9.95z" fill="none" stroke="#263238" stroke-linecap="round" stroke-linejoin="round" stroke-width="1.143"/><path fill="none" stroke="#263238" stroke-linecap="round" stroke-linejoin="round" stroke-width="1.143" d="M210.63 218.19l-.55 25.63-7.16-28.11m-23.7-5.51s-10.75 14.05-18.22 15.43m23.45-12.4s-3.58 7.17-7.44 8m140.82 17.9l-4.68 17.37-2.76-17.64m-55.11-31.97l-9.65 7.99-8.27 199.24"/><path d="M250 230.45a1.79 1.79 0 11-1.79-1.79 1.8 1.8 0 011.79 1.79zm19.88 0a1.79 1.79 0 11-1.79-1.79 1.8 1.8 0 011.79 1.79zM249.35 265a1.79 1.79 0 11-1.79-1.79 1.79 1.79 0 011.79 1.79zm19.84 0a1.79 1.79 0 11-1.79-1.79 1.79 1.79 0 011.79 1.79zm-20.53 39.17a1.79 1.79 0 11-1.79-1.79 1.79 1.79 0 011.79 1.79zm19.84 0a1.79 1.79 0 11-1.79-1.79 1.79 1.79 0 011.79 1.79z" fill="#263238"/><path d="M163.79 167.49s-7.17 0-9.65.82-11.57 17.64-14 23.7a27.41 27.41 0 00-1.66 12.4l13.23-6.34 3.86 17.64s20.94-16.53 23.7-22-3.58-20.95-3.58-20.95zm92.04 11.02s-13.23 3.58-14.61 10.2 9.92 17.08 12.13 19 22.59-2.21 31.69-4.41 21.22-8 20.94-12.68-5.79-6.61-7.44-10.47-2.76-6.06-7.72-6.61a94.65 94.65 0 00-14.88-.28c-1.94.29-20.11 5.25-20.11 5.25z" fill="#263238" stroke="#263238" stroke-linecap="round" stroke-linejoin="round" stroke-width="1.143"/><path d="M255.28 206.89s-1.38-2.75-6.62-2.48-9.37 6.06-9.37 6.06 10.2 2.21 15.99-3.58z" fill="#263238" stroke="#263238" stroke-linecap="round" stroke-linejoin="round" stroke-width="1.143"/><path d="M255.28 206.89s2.2-4.13 6.61.28 7.16 11.83 7.16 11.83-5.78 2.48-11.29-3.31-2.48-8.8-2.48-8.8z" fill="#263238" stroke="#263238" stroke-linecap="round" stroke-linejoin="round" stroke-width="1.143"/><path d="M298 183.47s.28 5.24-9.65 10.47a156.65 156.65 0 01-22 9.09m14.87-12.61s7.4-4.75 8.5-8-2.2-5-2.2-5m-31.69 28.37s-6.62-8-6.62-14 2.48-6.89 2.48-6.89" fill="none" stroke="#fff" stroke-linecap="round" stroke-linejoin="round" stroke-width="1.143"/><path d="M256.2 114.78a47.51 47.51 0 01-6.18-9.42c-2.35-5-5.59-13.24.59-18.24s30-8.24 41.5-6.77 21.19 13.24 30.31 29.72 12.07 29.14 10 34.73-10.3 11.77-20 11.48-15.3-10.6-20.89-15.89-23-16.19-25.31-18.55a99.3 99.3 0 00-8.54-6.76z" fill="#fff"/><g clip-path="url(#b)"><path d="M299.37 82.75c4.5 5.48 15.09 19.34 16.06 29.66 1.23 13.14-23.83 6.57-23.83 6.57s16.43-9.86 11.5-8.63-9-1.64-16.43-1.64-16.84-9.86-16.84-6.57.82 4.11 2.88 7-2.06 0 7.8 14c3 4.29 5.32 9.32 7.59 14.43 1.36 1.06 2.54 2 3.42 2.87 5.59 5.29 11.18 15.59 20.89 15.89s18-5.89 20-11.48-.89-18.25-10-34.73c-7.13-12.94-14.62-22.92-23.04-27.37z" fill="#55fb9b"/><path d="M299.37 82.75c4.5 5.48 15.09 19.34 16.06 29.66 1.23 13.14-23.83 6.57-23.83 6.57s16.43-9.86 11.5-8.63-9-1.64-16.43-1.64-16.84-9.86-16.84-6.57.82 4.11 2.88 7-2.06 0 7.8 14c3 4.29 5.32 9.32 7.59 14.43 1.36 1.06 2.54 2 3.42 2.87 5.59 5.29 11.18 15.59 20.89 15.89s18-5.89 20-11.48-.89-18.25-10-34.73c-7.13-12.94-14.62-22.92-23.04-27.37z" fill="#fff" opacity=".5"/></g><path d="M256.2 114.78a47.51 47.51 0 01-6.18-9.42c-2.35-5-5.59-13.24.59-18.24s30-8.24 41.5-6.77 21.19 13.24 30.31 29.72 12.07 29.14 10 34.73-10.3 11.77-20 11.48-15.3-10.6-20.89-15.89-23-16.19-25.31-18.55a99.3 99.3 0 00-8.54-6.76zm8.8-10.22s-2.92-1.62-7.79-7.79m10.45-1.91a9.76 9.76 0 01-.08-2.63m4.87 13.63a37.94 37.94 0 01-4-8.06m27.7 21.05s8.12 1.62 15.26.33m9.75 14.89h2.26m-15.91-1.91a63.62 63.62 0 0010.09 1.68m-11.66 4.48s8.07 8.78 13.91 10.4" fill="none" stroke="#263238" stroke-linecap="round" stroke-linejoin="round" stroke-width="1.143"/><path d="M299.76 143c0-.88-4.42-11.18-12.07-18.54s-22.37-9.12-27.37-8.83-7.36 2.65-7.36 2.65-5.29 19.43-7.94 26.2a27.53 27.53 0 00-.22 18.08 70.28 70.28 0 007.28 14.88c4.42 7.06 4.42 26.49 4.42 26.49s22.07-10 24.72-13.54 1.17-15.89 2.35-21.78a19.45 19.45 0 011.06-3.51 17.7 17.7 0 003.36-5.32s11.77-15.86 11.77-16.78z" fill="#fff"/><g clip-path="url(#c)"><path d="M293.16 130.87l-6.49-.39a206.77 206.77 0 01-7 24.65c-4.11 11.09-9.86 17.66-15.61 19.72s-12.32-.82-9.86 2.46c1.46 1.95 10.32 10.28 20.19 17.75 3.31-1.84 6-3.55 6.81-4.64 2.65-3.53 1.17-15.89 2.35-21.78a19.45 19.45 0 011.06-3.51 17.7 17.7 0 003.36-5.32s11.77-15.89 11.77-16.78c.02-.64-2.34-6.29-6.58-12.16z" fill="#55fb9b"/><path d="M293.16 130.87l-6.49-.39a206.77 206.77 0 01-7 24.65c-4.11 11.09-9.86 17.66-15.61 19.72s-12.32-.82-9.86 2.46c1.46 1.95 10.32 10.28 20.19 17.75 3.31-1.84 6-3.55 6.81-4.64 2.65-3.53 1.17-15.89 2.35-21.78a19.45 19.45 0 011.06-3.51 17.7 17.7 0 003.36-5.32s11.77-15.89 11.77-16.78c.02-.64-2.34-6.29-6.58-12.16z" fill="#fff" opacity=".5"/></g><path d="M299.76 143c0-.88-4.42-11.18-12.07-18.54s-22.37-9.12-27.37-8.83-7.36 2.65-7.36 2.65-5.29 19.43-7.94 26.2a27.53 27.53 0 00-.22 18.08 70.28 70.28 0 007.28 14.88c4.42 7.06 4.42 26.49 4.42 26.49s22.07-10 24.72-13.54 1.17-15.89 2.35-21.78a19.45 19.45 0 011.06-3.51 17.7 17.7 0 003.36-5.32s11.77-15.86 11.77-16.78z" fill="none" stroke="#263238" stroke-linecap="round" stroke-linejoin="round" stroke-width="1.143"/><path d="M262.38 136.27s-.88 3.53-3.82 4.7-6.77.89-5.6 2.95 5.6 3.23 5.6 3.23m-4.12 7.36s5 2.06 7.94.59m10.01-15.89s-.59 5 5.59 4.12m-25.31-8.83s2.94 4.71 7.06 1.77m14.13-3.83s5.3-1.77 7.65 4.71m-19.13-7.06s-3.53-5.3-8.53-1.48m8.83 23.55s.29 4.41 2.64 5.3m24.14.29s-8.24 10-13.83 11.77" fill="none" stroke="#263238" stroke-linecap="round" stroke-linejoin="round" stroke-width="1.143"/><path d="M288.7 135.38s-3.83 4.57-3.4 8.43 6.38 7.72 8.08 7.72 6.38-7 6.38-7-6.76-7.39-11.06-9.15zm-26.26-13.09s-3.31 3.31-11.3 3.31a76.1 76.1 0 01-13.5-1.1s17.91-4.41 24.8-2.21z" fill="#263238" stroke="#263238" stroke-linecap="round" stroke-linejoin="round" stroke-width="1.143"/><path d="M206.57 174.93a15.42 15.42 0 0030.25-5.39z" fill="#fff"/><g clip-path="url(#d)"><path d="M206.57 174.93a15.42 15.42 0 0030.25-5.39z" opacity=".42"/></g><path d="M206.57 174.93a15.42 15.42 0 0030.25-5.39z" fill="none" stroke="#263238" stroke-linecap="round" stroke-linejoin="round" stroke-width="1.143"/><path d="M187.76 135a14.69 14.69 0 001.65-6.06c0-3-1.1-8-2.75-7.44s-1.65 4.68-1.38 6.06a10.4 10.4 0 01-.27 3.58s-1.38 2.48-.28 4.41 3.03-.55 3.03-.55z" fill="#fff" stroke="#263238" stroke-linecap="round" stroke-linejoin="round" stroke-width="1.143"/><path d="M206.57 174.93l-29.86-64.08a3.17 3.17 0 00-4.23-1.52h0a3.16 3.16 0 00-1.48 4.27l1.31 2.63" fill="none" stroke="#263238" stroke-linecap="round" stroke-linejoin="round" stroke-width="1.143"/><path d="M176.46 124.77s0 3.31 1.38 4.14 8.54 5 8.82 2.48-5-5.79-6.61-6.62-2.21-.55-3.59 0z" fill="none" stroke="#263238" stroke-linecap="round" stroke-linejoin="round" stroke-width="1.143"/><path d="M177.84 128.91s-4.41 8.81-4.41 12.67v14.61s-17.08 17.91-17.91 22.59-3 16 0 16 17.09-13.51 18.19-16.26 7.71-20.94 7.71-20.94a14.82 14.82 0 011.93-2.48c1.1-1.11 1.38-8.27 1.38-8.27s3-.28 3-1.93V135c.03-2.24-9.89-6.09-9.89-6.09z" fill="#fff"/><g clip-path="url(#e)"><path d="M173.71 178.51c1.1-2.76 7.71-20.94 7.71-20.94a14.82 14.82 0 011.93-2.48c1.1-1.11 1.38-8.27 1.38-8.27s3-.28 3-1.93V135c0-.48-.47-1-1.2-1.6l-2 9-7.93.79a20.15 20.15 0 012.77 6c.8 3.17-.39 8.72-2.37 13.87-1.87 4.86-20.66 27.69-22.79 30.28.23.93.64 1.5 1.32 1.5 3.02-.07 17.08-13.58 18.18-16.33z" fill="#55fb9b"/><path d="M173.71 178.51c1.1-2.76 7.71-20.94 7.71-20.94a14.82 14.82 0 011.93-2.48c1.1-1.11 1.38-8.27 1.38-8.27s3-.28 3-1.93V135c0-.48-.47-1-1.2-1.6l-2 9-7.93.79a20.15 20.15 0 012.77 6c.8 3.17-.39 8.72-2.37 13.87-1.87 4.86-20.66 27.69-22.79 30.28.23.93.64 1.5 1.32 1.5 3.02-.07 17.08-13.58 18.18-16.33z" fill="#fff" opacity=".5"/></g><path d="M177.84 128.91s-4.41 8.81-4.41 12.67v14.61s-17.08 17.91-17.91 22.59-3 16 0 16 17.09-13.51 18.19-16.26 7.71-20.94 7.71-20.94a14.82 14.82 0 011.93-2.48c1.1-1.11 1.38-8.27 1.38-8.27s3-.28 3-1.93V135c.03-2.24-9.89-6.09-9.89-6.09z" fill="none" stroke="#263238" stroke-linecap="round" stroke-linejoin="round" stroke-width="1.143"/><path fill="none" stroke="#263238" stroke-linecap="round" stroke-linejoin="round" stroke-width="1.143" d="M184.73 146.82l-.83-2.21-2.75.28m-3.86-4.96l9.37.27m-8.82-5.51l9.09 2.21"/><path d="M365.5 246.85s-24 4.13-21.49 9.37l.83 3.86s-17.36 22-16.54 22.87 32 19.29 33.07 19.29 20.67-35 24.8-41.89 4.69-13.22-.55-16.53-11-6.34-11-6.34" fill="#fff"/><g clip-path="url(#f)"><path d="M385.62 243.82c-5.24-3.31-11-6.34-11-6.34l-3.35 3.45c3.4 2.9 9.2 8.25 9.49 11.14.41 4.11-5.75 12.33-6.57 14s-8.22-11.5-15.2-11.5.3 2.6 4 6.64 4.17 10.61 1.29 14.72c-2.7 3.86-31.8 1.92-26.55 12.87 9.52 5.69 22.89 13.47 23.61 13.47 1.1 0 20.67-35 24.8-41.89s4.72-13.25-.52-16.56z" fill="#55fb9b"/><path d="M385.62 243.82c-5.24-3.31-11-6.34-11-6.34l-3.35 3.45c3.4 2.9 9.2 8.25 9.49 11.14.41 4.11-5.75 12.33-6.57 14s-8.22-11.5-15.2-11.5.3 2.6 4 6.64 4.17 10.61 1.29 14.72c-2.7 3.86-31.8 1.92-26.55 12.87 9.52 5.69 22.89 13.47 23.61 13.47 1.1 0 20.67-35 24.8-41.89s4.72-13.25-.52-16.56z" fill="#fff" opacity=".5"/></g><path d="M365.5 246.85s-24 4.13-21.49 9.37l.83 3.86s-17.36 22-16.54 22.87 32 19.29 33.07 19.29 20.67-35 24.8-41.89 4.69-13.22-.55-16.53-11-6.34-11-6.34" fill="none" stroke="#263238" stroke-linecap="round" stroke-linejoin="round" stroke-width="1.143"/><path d="M348.42 258.42s8.54-3.3 14.6 2.76 7.17 8.54 7.17 8.54a18 18 0 00-6.89-12.67" fill="none" stroke="#263238" stroke-linecap="round" stroke-linejoin="round" stroke-width="1.143"/><path d="M316.73 296.18s-2.76 3.58-5.51 5a29.27 29.27 0 00-10.2 9.64c-3.31 5-7.44 9.37-5 11.3a8.85 8.85 0 005 1.93s1.65 3.86 3.86 4.13a29.5 29.5 0 003.31.28s1.92 1.93 3 1.93H314s1.1 1.38 3.58 0 5-9.65 5.79-12.4.83-8.55.83-8.55l3.86-5.51-8.82-8.82z" fill="#fff"/><g clip-path="url(#g)"><path d="M316.73 296.18a26.88 26.88 0 01-2.17 2.41l3.94 9.09s-3 14.6-5.15 18.63c-.87 1.65-2.68 2.28-4.52 2.69a4.94 4.94 0 002.39 1.35H314s1.1 1.38 3.58 0 5-9.65 5.79-12.4.83-8.55.83-8.55l3.86-5.51-8.82-8.82z" fill="#55fb9b"/><path d="M316.73 296.18a26.88 26.88 0 01-2.17 2.41l3.94 9.09s-3 14.6-5.15 18.63c-.87 1.65-2.68 2.28-4.52 2.69a4.94 4.94 0 002.39 1.35H314s1.1 1.38 3.58 0 5-9.65 5.79-12.4.83-8.55.83-8.55l3.86-5.51-8.82-8.82z" fill="#fff" opacity=".5"/></g><path d="M316.73 296.18s-2.76 3.58-5.51 5a29.27 29.27 0 00-10.2 9.64c-3.31 5-7.44 9.37-5 11.3a8.85 8.85 0 005 1.93s1.65 3.86 3.86 4.13a29.5 29.5 0 003.31.28s1.92 1.93 3 1.93H314s1.1 1.38 3.58 0 5-9.65 5.79-12.4.83-8.55.83-8.55l3.86-5.51-8.82-8.82z" fill="none" stroke="#263238" stroke-linecap="round" stroke-linejoin="round" stroke-width="1.143"/><path d="M327.48 279.64s32.51 17.09 34.44 18.19 2.76 4.41 2.21 8 3.3 17.09-.83 17.09-22.05-5.51-32.52-11.3-15.71-14.33-15.71-15.43 12.41-16.55 12.41-16.55z" fill="#263238" stroke="#263238" stroke-linecap="round" stroke-linejoin="round" stroke-width="1.143"/><path d="M298 146.27l7.95-8c4.25-4.25-3.21-12.5-5.91-15.55a56.33 56.33 0 00-23.31-15.58c-5.43-1.94-17.23-5.62-20.22 1.71l-5.3 12.94s14.42-1.17 26.78 5.3S298 146.27 298 146.27z" fill="#fff"/><g clip-path="url(#h)"><path d="M276.72 107.19c-4.61-1.65-13.83-4.53-18.33-.86 3.63-.1 9.36.93 18 5.26 18.08 9 18.49 11.91 17.25 16.43-.51 1.88-2.86 4.32-5.44 6.53a61.79 61.79 0 019.8 11.72l7.95-8c4.25-4.25-3.21-12.5-5.91-15.55a56.33 56.33 0 00-23.32-15.53z" fill="#55fb9b"/><path d="M276.72 107.19c-4.61-1.65-13.83-4.53-18.33-.86 3.63-.1 9.36.93 18 5.26 18.08 9 18.49 11.91 17.25 16.43-.51 1.88-2.86 4.32-5.44 6.53a61.79 61.79 0 019.8 11.72l7.95-8c4.25-4.25-3.21-12.5-5.91-15.55a56.33 56.33 0 00-23.32-15.53z" fill="#fff" opacity=".5"/></g><path d="M298 146.27l7.95-8c4.25-4.25-3.21-12.5-5.91-15.55a56.33 56.33 0 00-23.31-15.58c-5.43-1.94-17.23-5.62-20.22 1.71l-5.3 12.94s14.42-1.17 26.78 5.3S298 146.27 298 146.27z" fill="none" stroke="#263238" stroke-linecap="round" stroke-linejoin="round" stroke-width="1.143"/><path d="M289.46 150.69s9.12-7.36 11.77-2.95-3.53 10.6-8.24 10.6-7.06-1.77-7.06-1.77" fill="#fff"/><g clip-path="url(#i)"><path d="M289.46 150.69s9.12-7.36 11.77-2.95-3.53 10.6-8.24 10.6-7.06-1.77-7.06-1.77" fill="#55fb9b"/><path d="M289.46 150.69s9.12-7.36 11.77-2.95-3.53 10.6-8.24 10.6-7.06-1.77-7.06-1.77" fill="#fff" opacity=".5"/></g><path d="M289.46 150.69s9.12-7.36 11.77-2.95-3.53 10.6-8.24 10.6-7.06-1.77-7.06-1.77M73.41 415.5h322.63" fill="none" stroke="#263238" stroke-linecap="round" stroke-linejoin="round" stroke-width="1.143"/><path d="M232.68 317.69h-97.39v106.38c0 6.4 21.89 11.59 48.9 11.59s48.9-5.19 48.9-11.59z" fill="#fff"/><g clip-path="url(#j)"><path d="M232.68 317.69h-97.39v106.38c0 6.4 21.89 11.59 48.9 11.59s48.9-5.19 48.9-11.59z" opacity=".42"/><path d="M158.45 317.69v116.23a176.22 176.22 0 0022.46 1.71V317.69zm30.89 0v117.9c2.39 0 4.74-.15 7-.29V317.69z" fill="#263238"/><path d="M199.87 317.69v117.36q3.65-.3 7-.72V317.69z" fill="#fff"/></g><path d="M232.68 317.69h-97.39v106.38c0 6.4 21.89 11.59 48.9 11.59s48.9-5.19 48.9-11.59z" fill="none" stroke="#263238" stroke-linecap="round" stroke-linejoin="round" stroke-width="1.143"/><path d="M184.19 300.7c-12.58 0-25.42.82-37.7 3.74-6.86 1.64-19.36 5.1-16.45 15 1.3 4.42 6.41 6.12 10.31 7.52a81.46 81.46 0 0014.81 3.28 188 188 0 0029 2.07c12.59 0 25.44-.82 37.72-3.75 5-1.18 11.19-2.46 14.69-6.53a8.48 8.48 0 00-1-12.26c-4.14-3.14-9.89-4.46-14.85-5.57a149.75 149.75 0 00-24.06-3.12q-6.21-.38-12.47-.38z" fill="#fff"/><g clip-path="url(#k)"><path d="M184.19 300.7c-12.58 0-25.42.82-37.7 3.74-6.86 1.64-19.36 5.1-16.45 15 1.3 4.42 6.41 6.12 10.31 7.52a81.46 81.46 0 0014.81 3.28 188 188 0 0029 2.07c12.59 0 25.44-.82 37.72-3.75 5-1.18 11.19-2.46 14.69-6.53a8.48 8.48 0 00-1-12.26c-4.14-3.14-9.89-4.46-14.85-5.57a149.75 149.75 0 00-24.06-3.12q-6.21-.38-12.47-.38z" opacity=".42"/></g><path d="M184.19 300.7c-12.58 0-25.42.82-37.7 3.74-6.86 1.64-19.36 5.1-16.45 15 1.3 4.42 6.41 6.12 10.31 7.52a81.46 81.46 0 0014.81 3.28 188 188 0 0029 2.07c12.59 0 25.44-.82 37.72-3.75 5-1.18 11.19-2.46 14.69-6.53a8.48 8.48 0 00-1-12.26c-4.14-3.14-9.89-4.46-14.85-5.57a149.75 149.75 0 00-24.06-3.12q-6.21-.38-12.47-.38z" fill="none" stroke="#263238" stroke-linecap="round" stroke-linejoin="round" stroke-width="1.143"/><ellipse cx="184.19" cy="313.97" rx="48.85" ry="10.39" fill="#fff"/><g clip-path="url(#l)"><ellipse cx="184.19" cy="313.97" rx="48.85" ry="10.39" opacity=".65"/></g><ellipse cx="184.19" cy="313.97" rx="48.85" ry="10.39" fill="none" stroke="#263238" stroke-linecap="round" stroke-linejoin="round" stroke-width="1.143"/><path d="M136.48 346.63s-7.16-12.13-5-16 11.85-.27 14.61 3.31 5.24 13.51 3.86 13.78-3.58.55-4.14-1.37-3.3-10.2-5-11.31-5.51-3.3-5.51-.82 4.14 11 3.58 12.4-.74 1.66-2.4.01z" fill="#263238"/><path d="M325.41 340.9h-78.23v85.45c0 5.14 17.59 9.31 39.28 9.31s39.28-4.17 39.28-9.31z" fill="#fff"/><g clip-path="url(#m)"><path d="M325.41 340.9h-78.23v85.45c0 5.14 17.59 9.31 39.28 9.31s39.28-4.17 39.28-9.31z" opacity=".42"/></g><path d="M325.41 340.9h-78.23v85.45c0 5.14 17.59 9.31 39.28 9.31s39.28-4.17 39.28-9.31z" fill="none" stroke="#263238" stroke-linecap="round" stroke-linejoin="round" stroke-width="1.143"/><path d="M265.79 340.9v93.36a142.14 142.14 0 0018 1.38V340.9zm24.8 0v94.71q2.9-.08 5.64-.24V340.9z" fill="#263238"/><path d="M299.05 340.9v94.27c1.95-.16 3.84-.35 5.64-.57v-93.7z" fill="#fff"/><path d="M286.46 327.26c-10.11 0-20.42.66-30.28 3-5.52 1.31-15.55 4.09-13.21 12 1 3.55 5.14 4.91 8.28 6a65.08 65.08 0 0011.89 2.74 151.63 151.63 0 0023.32 1.66c10.11 0 20.43-.66 30.3-3 4-.95 9-2 11.8-5.25a6.82 6.82 0 00-.81-9.85c-3.32-2.51-7.95-3.57-11.92-4.47a120.89 120.89 0 00-19.33-2.51q-5.01-.32-10.04-.32z" fill="#fff"/><g clip-path="url(#n)"><path d="M286.46 327.26c-10.11 0-20.42.66-30.28 3-5.52 1.31-15.55 4.09-13.21 12 1 3.55 5.14 4.91 8.28 6a65.08 65.08 0 0011.89 2.74 151.63 151.63 0 0023.32 1.66c10.11 0 20.43-.66 30.3-3 4-.95 9-2 11.8-5.25a6.82 6.82 0 00-.81-9.85c-3.32-2.51-7.95-3.57-11.92-4.47a120.89 120.89 0 00-19.33-2.51q-5.01-.32-10.04-.32z" opacity=".42"/></g><path d="M286.46 327.26c-10.11 0-20.42.66-30.28 3-5.52 1.31-15.55 4.09-13.21 12 1 3.55 5.14 4.91 8.28 6a65.08 65.08 0 0011.89 2.74 151.63 151.63 0 0023.32 1.66c10.11 0 20.43-.66 30.3-3 4-.95 9-2 11.8-5.25a6.82 6.82 0 00-.81-9.85c-3.32-2.51-7.95-3.57-11.92-4.47a120.89 120.89 0 00-19.33-2.51q-5.01-.32-10.04-.32z" fill="none" stroke="#263238" stroke-linecap="round" stroke-linejoin="round" stroke-width="1.143"/><ellipse cx="286.46" cy="337.92" rx="39.24" ry="8.35" fill="#fff"/><g clip-path="url(#o)"><ellipse cx="286.46" cy="337.92" rx="39.24" ry="8.35" opacity=".65"/></g><ellipse cx="286.46" cy="337.92" rx="39.24" ry="8.35" fill="none" stroke="#263238" stroke-linecap="round" stroke-linejoin="round" stroke-width="1.143"/><path d="M248.14 364.15s-5.76-9.74-4-12.84 9.52-.22 11.74 2.65 4.2 10.85 3.1 11.07-2.88.45-3.32-1.1-2.66-8.19-4-9.08-4.43-2.66-4.43-.66 3.33 8.85 2.88 10-.64 1.29-1.97-.04z" fill="#263238"/><path d="M158.7 268.91c0 6.2 5.61 6.2 5.61 12.39s-5.61 6.19-5.61 12.39 5.61 6.19 5.61 12.39-5.61 6.2-5.61 12.39m5.61-61.94c0 3.9-2.23 5.34-3.88 7.43m24.37 4.48c0 5-5.61 5-5.61 10s5.61 5 5.61 10-5.61 5-5.61 10 5.61 5 5.61 10-5.61 5-5.61 10m26.1-61.91c0 6.19-5.61 6.19-5.61 12.38s5.61 6.2 5.61 12.39-5.61 6.19-5.61 12.39 5.61 6.19 5.61 12.39-5.61 6.2-5.61 12.39m71.71-10.78a5.59 5.59 0 01.66 2.78c0 4.66-4.23 4.66-4.23 9.33s4.23 4.67 4.23 9.34-4.23 4.68-4.23 9.35m19.68-37.72c0 3.77-4.23 3.77-4.23 7.54s4.23 3.77 4.23 7.54-4.23 3.77-4.23 7.55 4.23 3.77 4.23 7.54-4.23 3.77-4.23 7.55M301 315c-1.1 1.22-2.25 2.38-2.25 4.81 0 4.67 4.23 4.67 4.23 9.34s-4.23 4.68-4.23 9.35" fill="none" stroke="#263238" stroke-linecap="round" stroke-linejoin="round" stroke-width="1.143"/></svg>