<svg xmlns="http://www.w3.org/2000/svg" viewBox="0 0 500 500"><g stroke="#263238" stroke-linejoin="round"><path fill="none" stroke-linecap="round" d="M413.1 274.92l15.15 145.21m-2.99-28.39l-6.32-6.65"/><path d="M421 387.26a7.81 7.81 0 00-2.74-5.83c-1.76-1.57-11-5.48-11.92-2.21-.93 3.56 8.57 10.54 14.66 8.04z" fill="#55fb9b"/><path fill="none" stroke-linecap="round" d="M421.03 387.26l-8.84-5.5m14.65 24.98l-6.18-5.14"/><path d="M422.75 403.78A7.76 7.76 0 00420 398c-1.76-1.58-11-5.48-11.92-2.21-.95 3.5 8.55 10.48 14.67 7.99z" fill="#55fb9b"/><path fill="none" stroke-linecap="round" d="M422.75 403.78l-8.84-5.51m7.06-47.87l-6.24-5.61"/><path d="M416.82 347a7.75 7.75 0 00-2.73-5.82c-1.77-1.58-11-5.48-11.93-2.21-.96 3.51 8.54 10.49 14.66 8.03z" fill="#55fb9b"/><path fill="none" stroke-linecap="round" d="M416.82 346.96l-8.84-5.5m14.73 26.5l-6.25-6.66"/><path d="M418.54 363.48a7.78 7.78 0 00-2.73-5.83c-1.76-1.57-11.05-5.48-11.93-2.21-.95 3.56 8.55 10.56 14.66 8.04z" fill="#55fb9b"/><path fill="none" stroke-linecap="round" d="M418.54 363.48l-8.83-5.51m8.48-33.63l-6.26-6.38"/><path d="M414 320.14a7.78 7.78 0 00-2.73-5.83c-1.77-1.58-11.05-5.48-11.93-2.21-.94 3.55 8.56 10.54 14.66 8.04z" fill="#55fb9b"/><path fill="none" stroke-linecap="round" d="M414.02 320.14l-8.83-5.51m9.99-18.98l-6.06-4.63"/><path d="M411.21 293.19a7.78 7.78 0 00-2.74-5.82c-1.76-1.58-11-5.48-11.92-2.21-.96 3.55 8.54 10.53 14.66 8.03z" fill="#55fb9b"/><path fill="none" stroke-linecap="round" d="M411.21 293.19l-8.84-5.5m22.28 94.88l5.23-8.52"/><path d="M428.28 376.61a7.77 7.77 0 011.48-6.26c1.4-1.91 9.67-7.65 11.21-4.63 1.67 3.28-6.18 12.07-12.69 10.89z" fill="#55fb9b"/><path fill="none" stroke-linecap="round" d="M428.28 376.61l6.22-5.83m-14.38-31.67l5.22-8.51"/><path d="M423.75 333.15a7.74 7.74 0 011.47-6.26c1.4-1.91 7.87-6.68 9.41-3.66 1.67 3.28-4.38 11.11-10.88 9.92z" fill="#55fb9b"/><path fill="none" stroke-linecap="round" d="M423.75 333.15l7.95-7.6m-13.57-5.53l5.22-8.52"/><path d="M421.76 314.06a7.77 7.77 0 011.47-6.27c1.4-1.91 9.67-7.64 11.21-4.63 1.67 3.29-6.18 12.08-12.68 10.9z" fill="#55fb9b"/><path fill="none" stroke-linecap="round" d="M421.76 314.06l7.95-7.61m-14.51-14.43l5.23-8.52"/><path d="M418.83 286.06a7.8 7.8 0 011.48-6.27c1.4-1.9 9.67-7.64 11.21-4.62 1.67 3.28-6.18 12.07-12.69 10.89z" fill="#55fb9b"/><path fill="none" stroke-linecap="round" d="M418.83 286.06l7.96-7.61"/><path d="M413 274.12a7.77 7.77 0 011.47-6.27c1.4-1.9 9.68-7.64 11.21-4.62 1.64 3.28-6.21 12.07-12.68 10.89z" fill="#55fb9b"/><path fill="none" stroke-linecap="round" d="M412.97 274.12l7.95-7.61"/><path d="M413.43 274.45a7.8 7.8 0 01-6.08-2.13c-1.75-1.59-6.58-10.42-3.42-11.63 3.44-1.32 11.36 7.41 9.5 13.76z" fill="#55fb9b"/><path fill="none" stroke-linecap="round" d="M413.43 274.45l-6.73-8.71m29.1-29.95v183.64m17.27-124.51L438 440.14m3.18-29.67l-3.48-3.99"/><path d="M437.7 406.48a7.77 7.77 0 00-1.48-6.26c-1.4-1.91-9.68-7.64-11.21-4.62-1.67 3.28 6.18 12.07 12.69 10.88z" fill="#55fb9b"/><path fill="none" stroke-linecap="round" d="M437.7 406.48l-7.52-7.2m15.26-30.27l-5.18-4.32"/><path d="M441.88 366.18a7.77 7.77 0 00-1.48-6.26c-1.4-1.91-9.68-7.64-11.21-4.62-1.67 3.28 6.19 12.07 12.69 10.88z" fill="#55fb9b"/><path fill="none" stroke-linecap="round" d="M441.88 366.18l-7.52-7.2m9.44 29.68l-5.23-8.52"/><path d="M440.16 382.7a7.77 7.77 0 00-1.47-6.27c-1.4-1.9-9.68-7.63-11.22-4.61-1.67 3.28 6.19 12.07 12.69 10.88z" fill="#55fb9b"/><path fill="none" stroke-linecap="round" d="M440.16 382.7l-7.51-7.21m15.41-32.94l-4.99-5.75"/><path d="M444.66 339.36a7.81 7.81 0 00-1.47-6.27c-1.41-1.9-9.68-7.64-11.22-4.62-1.67 3.28 6.19 12.07 12.69 10.89z" fill="#55fb9b"/><path fill="none" stroke-linecap="round" d="M444.66 339.36l-7.51-7.21m13.53-14.82l-4.82-7.48"/><path d="M447.46 312.41a7.8 7.8 0 00-1.48-6.27c-1.4-1.9-9.68-7.63-11.21-4.61-1.67 3.28 6.23 12.07 12.69 10.88z" fill="#55fb9b"/><path fill="none" stroke-linecap="round" d="M447.46 312.41l-7.52-7.21m2.27 97.44l6.87-7.26"/><path d="M447 397.56a7.78 7.78 0 012.73-5.83c1.76-1.58 11-5.49 11.93-2.22.94 3.56-8.55 10.54-14.66 8.05z" fill="#55fb9b"/><path fill="none" stroke-linecap="round" d="M446.99 397.56l9.35-5.8m-9.62-32.58l6.87-7.26"/><path d="M451.5 354.1a7.78 7.78 0 012.73-5.83c1.76-1.58 11-5.49 11.92-2.22.96 3.56-8.53 10.54-14.65 8.05z" fill="#55fb9b"/><path fill="none" stroke-linecap="round" d="M451.5 354.1l9.35-5.81m-12.15-8.21l6.87-7.26"/><path d="M453.48 335a7.78 7.78 0 012.73-5.83c1.77-1.58 11-5.49 11.93-2.22.96 3.56-8.54 10.54-14.66 8.05z" fill="#55fb9b"/><path fill="none" stroke-linecap="round" d="M453.48 335l9.35-5.8m-11.3-18.55l6.94-5.83"/><path d="M456.39 307a7.78 7.78 0 012.73-5.83c1.76-1.58 11-5.49 11.92-2.22.96 3.56-8.53 10.54-14.65 8.05zm0 0l9.35-5.8m-12.63-7.09a7.78 7.78 0 012.73-5.83c1.76-1.58 11-5.49 11.92-2.22.96 3.55-8.53 10.54-14.65 8.05z" fill="#55fb9b"/><path fill="none" stroke-linecap="round" d="M453.11 294.11l9.35-5.81"/><path d="M453.49 294.52a7.78 7.78 0 01-5.51-3.33c-1.38-1.91-4.3-11.55-1-12.09 3.68-.58 9.63 9.6 6.51 15.42z" fill="#55fb9b"/><path fill="none" stroke-linecap="round" d="M453.49 294.52l-4.79-9.91m-13.15 106.87l-5.69-7.6"/><path d="M431.71 386.26a7.78 7.78 0 00-2.11-6.08c-1.59-1.75-10.42-6.59-11.63-3.43-1.32 3.43 7.4 11.36 13.74 9.51z" fill="#55fb9b"/><path fill="none" stroke-linecap="round" d="M431.71 386.26l-8.21-6.39m12.25-25.02l-5.89-5.48"/><path d="M431.71 351.75a7.78 7.78 0 00-2.11-6.08c-1.59-1.75-10.42-6.59-11.63-3.43-1.32 3.43 7.4 11.36 13.74 9.51z" fill="#55fb9b"/><path fill="none" stroke-linecap="round" d="M431.71 351.75l-8.21-6.39m12.44-28.57l-6.08-7.93"/><path d="M431.71 311.24a7.77 7.77 0 00-2.11-6.08c-1.59-1.75-10.42-6.6-11.63-3.44-1.32 3.44 7.4 11.37 13.74 9.52z" fill="#55fb9b"/><path fill="none" stroke-linecap="round" d="M431.71 311.24l-8.21-6.4m12.05-17.83l-5.69-5.13"/><path d="M431.71 284.26a7.78 7.78 0 00-2.11-6.08c-1.59-1.75-10.42-6.59-11.63-3.43-1.32 3.43 7.4 11.36 13.74 9.51z" fill="#55fb9b"/><path fill="none" stroke-linecap="round" d="M431.71 284.26l-8.21-6.39m12.38-17.85l-5.9-4.32"/><path d="M431.71 257.17a7.78 7.78 0 00-2.11-6.08c-1.59-1.75-10.42-6.59-11.63-3.43-1.32 3.43 7.4 11.34 13.74 9.51z" fill="#55fb9b"/><path fill="none" stroke-linecap="round" d="M431.71 257.17l-8.21-6.39m13.49 149.87l4.9-6.23"/><path d="M440 396.8a7.78 7.78 0 012.11-6.08c1.59-1.75 10.42-6.59 11.63-3.43 1.37 3.43-7.36 11.36-13.74 9.51z" fill="#55fb9b"/><path fill="none" stroke-linecap="round" d="M440.04 396.8l8.7-6.74m-12.93-42.59l6.08-7.93"/><path d="M440 341.91a7.78 7.78 0 012.11-6.08c1.59-1.74 10.42-6.59 11.63-3.43 1.37 3.43-7.36 11.36-13.74 9.51z" fill="#55fb9b"/><path fill="none" stroke-linecap="round" d="M440.04 341.91l8.7-6.73m-12.93-14.8l6.08-7.93"/><path d="M440 314.82a7.76 7.76 0 012.11-6.07c1.59-1.75 10.42-6.6 11.63-3.44 1.37 3.44-7.36 11.37-13.74 9.51z" fill="#55fb9b"/><path fill="none" stroke-linecap="round" d="M440.04 314.82l8.7-6.73m-12.93-23.52l6.08-7.93"/><path d="M440 279a7.78 7.78 0 012.11-6.08c1.59-1.75 10.42-6.6 11.63-3.44 1.37 3.46-7.36 11.39-13.74 9.52z" fill="#55fb9b"/><path fill="none" stroke-linecap="round" d="M440.04 279.02l8.7-6.74m-12.67-18.61l5.96-4.65"/><path d="M440 250.87a7.78 7.78 0 012.11-6.08c1.59-1.75 10.42-6.6 11.63-3.44 1.37 3.44-7.36 11.37-13.74 9.52z" fill="#55fb9b"/><path fill="none" stroke-linecap="round" d="M440.04 250.87l8.7-6.74"/><path d="M435.45 238.38a7.78 7.78 0 012.11-6.08c1.59-1.75 10.42-6.59 11.63-3.43 1.32 3.43-7.4 11.36-13.74 9.51z" fill="#55fb9b"/><path fill="none" stroke-linecap="round" d="M435.45 238.38l8.7-6.73"/><path d="M435.87 238.76a7.78 7.78 0 01-5.82-2.74c-1.58-1.77-5.47-11.05-2.2-11.93 3.55-.95 10.53 8.55 8.02 14.67z" fill="#55fb9b"/><path fill="none" stroke-linecap="round" d="M435.87 238.76l-5.79-9.36"/><path fill="#263238" stroke-linecap="round" d="M443.35 467.05H423.9l-2.43-49.11h24.31l-2.43 49.11z"/></g><rect x="195.73" y="43.59" width="173.85" height="369.05" rx="25.7" fill="#263238" stroke="#263238" stroke-linecap="round" stroke-linejoin="round"/><path d="M363.52 69.26V387a19.93 19.93 0 01-19.93 19.93H221.73a18.59 18.59 0 01-2.71-.19A19.94 19.94 0 01201.79 387V69.26a19.93 19.93 0 0119.94-19.93h3.54c11 0 40.5 1.13 42.66 3.29 3.44 3.44 7.46 8.14 12.71 8.69 5.49.56 9.85-3.88 13.42-7.41 4-4 9.37-4.57 14.8-4.57h34.73a19.93 19.93 0 0119.93 19.93z" fill="#fff" stroke="#263238" stroke-linecap="round" stroke-linejoin="round"/><path d="M203.09 394.06A20 20 0 00219 406.7a18.59 18.59 0 002.71.19h121.88a19.93 19.93 0 0018.61-12.83zm160.43-323v-1.8a19.93 19.93 0 00-19.93-19.93h-34.73c-5.43 0-10.79.6-14.8 4.57-3.57 3.53-7.93 8-13.42 7.41-5.25-.55-9.27-5.25-12.71-8.69-2.16-2.16-6.79-3.39-10.27-3.21 0-.1-21.43-.08-32.39-.08h-3.54a19.93 19.93 0 00-19.94 19.93v1.8z" fill="#55fb9b" stroke="#263238" stroke-linecap="round" stroke-linejoin="round"/><circle cx="281.63" cy="53.67" r="3.51" fill="#7d7d7d"/><path d="M369.52 149.75h0v-45.93h0a3.15 3.15 0 013.15 3.15v39.63a3.15 3.15 0 01-3.15 3.15zm0 39.59h0v-22.92h0a3.15 3.15 0 013.15 3.15v16.62a3.15 3.15 0 01-3.15 3.15z" fill="#263238" stroke="#263238" stroke-linecap="round" stroke-linejoin="round"/><path d="M197.19 306.86s.38 2 .77 2.13 4.16-.09 4.26-1.06-1.94-1.55-1.94-1.55z" fill="#fff" stroke="#263238" stroke-linejoin="round"/><path d="M349.26 58.73h-1.71v-2a.41.41 0 00-.41-.41h-15.23a.42.42 0 00-.41.41v8.37a.42.42 0 00.41.42h15.23a.41.41 0 00.41-.42v-2h1.71a.36.36 0 00.36-.36v-3.65a.36.36 0 00-.36-.36zm-2.53 6h-2.58v-7.57h2.58z" fill="#263238"/><rect x="211.93" y="58.9" width="3.67" height="5.67" rx=".44" fill="#263238"/><rect x="216.32" y="57.22" width="3.68" height="7.35" rx=".44" fill="#263238"/><rect x="220.71" y="55.24" width="3.67" height="9.34" rx=".44" fill="#263238"/><circle cx="282.8" cy="144.78" r="62.91" fill="#263238" stroke="#263238" stroke-linecap="round" stroke-linejoin="round"/><circle cx="281.83" cy="141.37" r="62.91" fill="#fff" stroke="#263238" stroke-linecap="round" stroke-linejoin="round"/><path d="M260.72 103.66s-11.29 11.28-14.67 13.54-7.9 6.77-9.6 8.47-1.62 2.74 0 3.42 2.05 1.14 3.18-.46 9.79-8.42 11.15-9.78 3.64-2.28 5.69-5a30.81 30.81 0 013.42-4.09c.68-.69 4.32-1.82 4.55-3.87s-3.72-2.23-3.72-2.23zM253 128.73s-11.33 11.27-14.71 13.55-7.9 6.77-9.6 8.46-1.63 2.74 0 3.43 2.05 1.13 3.18-.46 9.79-8.42 11.15-9.78 3.64-2.28 5.69-5a32 32 0 013.42-4.1c.68-.68 4.32-1.82 4.55-3.86s-3.68-2.24-3.68-2.24z" fill="#fff" stroke="#263238" stroke-linecap="round" stroke-linejoin="round"/><path d="M268.73 107.7s-2.27 4.32-3.18 5.69-5.92 8.19-7.51 10-4.78 6.6-5.47 7.28 0 3 0 3 1.6.68 2.28.91 2.5-1.82 3.19-3.19 6.59-10.24 7.73-11.83 5-3.64 5.69-7.28.91-5.95-2.73-4.58zm-36.66 26.5s-.42 5.33-.75 7.1-2.42 10.8-3.23 13.31-2 8.71-2.36 9.69 1.28 3 1.28 3 1.9 0 2.68-.07 1.73-2.91 1.83-4.58 2.22-13.15 2.68-15.25 3.47-5.82 2.58-9.78-1.63-6.37-4.71-3.42z" fill="#fff" stroke="#263238" stroke-linecap="round" stroke-linejoin="round"/><path d="M239.55 115.86s-.42 5.34-.75 7.1-2.42 10.8-3.24 13.32-2 8.7-2.35 9.68 1.28 3 1.28 3 1.89 0 2.68-.06 1.73-2.92 1.83-4.59 2.22-13.15 2.68-15.24 3.47-5.83 2.58-9.79-1.63-6.36-4.71-3.42zm19.32-9.78s-.39 4.87-.69 6.48-2.21 9.86-3 12.16-1.79 7.95-2.15 8.85 1.17 2.72 1.17 2.72 1.73 0 2.45-.06 1.58-2.66 1.67-4.19 2-12 2.45-13.92 3.17-5.32 2.36-8.93-1.46-5.8-4.26-3.11z" fill="#fff" stroke="#263238" stroke-linecap="round" stroke-linejoin="round"/><path d="M247.16 109.9s-8.67 7.37-11.07 9.81-2.6 2.9-3.45 3.65a31.34 31.34 0 00-3.42 3.34c-.37.63.69 1.82 2.13 2.07s6.3-5.58 6.3-5.58 11.17-8.67 12.74-10.67 4.49-4.89 4.7-5.68-.3-3.08-2.13-2.07-5.8 5.13-5.8 5.13zm.37 15.69s-7.3 8.73-9.26 11.53-2.07 3.3-2.78 4.19a31.27 31.27 0 00-2.81 3.87c-.25.68 1 1.67 2.45 1.67s5.27-6.56 5.27-6.56 9.54-10.44 10.75-12.67 3.6-5.58 3.67-6.39-.81-3-2.45-1.68-4.84 6.04-4.84 6.04z" fill="#fff" stroke="#263238" stroke-linecap="round" stroke-linejoin="round"/><path d="M256.44 97.91s-14.79 8.88-16.61 10-6.6 4.55-8.19 5.46a24.11 24.11 0 00-3 2s.23 2 1.59 2.28a5.71 5.71 0 004.33-1.14c.91-.91 12.06-8 13.88-9.33s6.37-3.18 7.05-3.87 2.51-.45 3-1.59 2.05-4.49-2.05-3.81zm-2.07 29.4s-14.79 8.88-16.61 10-6.6 4.55-8.19 5.46a22.7 22.7 0 00-3 2.05s.23 2 1.59 2.27a5.71 5.71 0 004.33-1.14c.91-.91 12.06-8 13.88-9.33s6.37-3.18 7.05-3.86 2.5-.46 3-1.6 2.05-4.53-2.05-3.85z" fill="#fff" stroke="#263238" stroke-linecap="round" stroke-linejoin="round"/><path d="M250.1 133s-8.68 14.91-9.72 16.78-3.59 7.17-4.55 8.74a23.6 23.6 0 00-1.6 3.22s1.19 1.68 2.49 1.22a5.66 5.66 0 003.24-3.08c.36-1.23 6.73-12.79 7.66-14.86s4-5.87 4.32-6.79 2-1.61 1.82-2.83-.4-5-3.66-2.4z" fill="#fff" stroke="#263238" stroke-linecap="round" stroke-linejoin="round"/><path d="M240.73 143s-1.38 15.9-2.52 19.81-1.7 10.27-1.91 12.65.52 3.15 2.18 2.65 2.3-.45 2.14-2.4 2.08-12.74 2.25-14.66 1.33-4.09 1.14-7.5a30.9 30.9 0 010-5.33c.08-1 2.14-4.17 1-5.89s-4.28.67-4.28.67z" fill="#fff" stroke="#263238" stroke-linecap="round" stroke-linejoin="round"/><path d="M240.9 141s-5.62 16.31-6.28 18.35-2.13 7.73-2.76 9.45a22.65 22.65 0 00-1 3.47s1.49 1.42 2.68.72a5.72 5.72 0 002.58-3.65c.11-1.29 4.12-13.86 4.63-16.07s2.83-6.54 2.92-7.5 1.62-2 1.24-3.13-1.31-4.84-4.01-1.64z" fill="#fff" stroke="#263238" stroke-linecap="round" stroke-linejoin="round"/><path d="M241.27 148s2.94 17 3.34 19.1 1.87 7.8 2.14 9.61a24.22 24.22 0 00.84 3.5s2 .53 2.7-.66a5.7 5.7 0 00.5-4.45c-.52-1.17-3.07-14.12-3.69-16.31s-.67-7.09-1.06-8 .48-2.5-.42-3.34-3.51-3.45-4.35.55z" fill="#fff" stroke="#263238" stroke-linecap="round" stroke-linejoin="round"/><path d="M252.79 135.16s-1.39 15.91-2.53 19.81-1.69 10.27-1.9 12.65.51 3.15 2.17 2.65 2.3-.45 2.15-2.4 2.08-12.74 2.25-14.66 1.32-4.09 1.13-7.49a33.5 33.5 0 010-5.34c.09-1 2.14-4.17 1-5.89s-4.27.67-4.27.67z" fill="#fff" stroke="#263238" stroke-linecap="round" stroke-linejoin="round"/><path d="M253 133.17s-5.62 16.31-6.29 18.35-2.12 7.73-2.76 9.45a24.08 24.08 0 00-.95 3.47s1.49 1.42 2.69.72a5.76 5.76 0 002.58-3.65c.11-1.29 4.11-13.86 4.63-16.07s2.83-6.54 2.91-7.5 1.63-2 1.24-3.12-1.39-4.82-4.05-1.65z" fill="#fff" stroke="#263238" stroke-linecap="round" stroke-linejoin="round"/><path d="M253.33 140.25s2.94 17 3.34 19.1 1.86 7.8 2.14 9.61a22.78 22.78 0 00.84 3.5s2 .53 2.7-.66a5.74 5.74 0 00.5-4.45c-.52-1.17-3.08-14.12-3.7-16.31s-.67-7.09-1.06-8 .48-2.5-.42-3.34-3.5-3.52-4.34.55zM316.44 104s-14.67-6.28-18-8.58-9.25-4.78-11.44-5.72-3.15-.5-3.19 1.23-.3 2.33 1.61 2.79 11.45 6 13.22 6.72 3.47 2.53 6.77 3.42a31.82 31.82 0 015.07 1.64c.89.38 3.29 3.34 5.28 2.79s.68-4.29.68-4.29zm-26.16 2.16s-14.68-6.28-18-8.59-9.22-4.81-11.43-5.76-3.14-.49-3.19 1.24-.29 2.33 1.61 2.79 11.45 6 13.23 6.71 3.46 2.54 6.76 3.42a31.67 31.67 0 015.07 1.65c.89.38 3.3 3.34 5.29 2.79s.66-4.25.66-4.25z" fill="#fff" stroke="#263238" stroke-linecap="round" stroke-linejoin="round"/><path d="M315.67 113s-4.86-.51-6.47-.84-9.8-2.45-12.08-3.25-7.91-2-8.79-2.36-2.75 1.09-2.75 1.09v2.46c0 .72 2.62 1.64 4.14 1.77s12 2.32 13.86 2.78 5.24 3.3 8.88 2.58 5.83-1.38 3.21-4.23zm-18.78-26.17s-4.66 1.45-6.27 1.77-10 1.62-12.39 1.78-8.05 1.29-9 1.29-2.09 2.1-2.09 2.1.64 1.6 1 2.25 3.06.48 4.51 0 11.91-2.59 13.84-2.91 6.11 1 9.17-1.13 4.77-3.54 1.23-5.15z" fill="#fff" stroke="#263238" stroke-linecap="round" stroke-linejoin="round"/><path d="M313.5 103.22s-4.66 1.45-6.27 1.77-10 1.62-12.39 1.78-8 1.29-9 1.29-2.09 2.09-2.09 2.09.64 1.61 1 2.26 3.05.48 4.5 0 11.91-2.58 13.84-2.9 6.11 1 9.17-1.13 4.74-3.55 1.24-5.16zm-23.6 15.59s-10.06-5.31-13.21-6.64-3.67-1.33-4.68-1.84a30.5 30.5 0 00-4.37-1.94c-.72-.1-1.43 1.32-1.13 2.75s7.53 3.77 7.53 3.77 12.2 7.15 14.64 7.86 6.2 2.36 7 2.26 2.75-1.43 1.13-2.75-6.91-3.47-6.91-3.47zm1.28-18.81s-10.82-3.58-14.18-4.36-3.83-.69-4.92-1a30.56 30.56 0 00-4.64-1.17c-.72 0-1.18 1.54-.64 2.89s8.05 2.45 8.05 2.45 13.23 5 15.76 5.27 6.51 1.27 7.3 1 2.47-1.86.64-2.89-7.37-2.19-7.37-2.19z" fill="#fff" stroke="#263238" stroke-linecap="round" stroke-linejoin="round"/><path d="M304.48 123s-13.73-10.44-15.47-11.7-6.68-4.44-8.11-5.58a23.29 23.29 0 00-3-2s-1.82 1-1.52 2.32a5.68 5.68 0 002.66 3.59c1.18.51 11.88 8.24 13.82 9.42s5.33 4.73 6.21 5.11 1.36 2.16 2.58 2.16 4.99.19 2.83-3.32zm-12.36-16.06s-13.74-10.43-15.47-11.7-6.68-4.43-8.12-5.57a23.22 23.22 0 00-3-2s-1.81 1-1.52 2.33a5.71 5.71 0 002.67 3.59c1.18.5 11.87 8.23 13.82 9.42s5.32 4.73 6.21 5.11 1.35 2.15 2.58 2.15 4.99.22 2.83-3.33z" fill="#fff" stroke="#263238" stroke-linecap="round" stroke-linejoin="round"/><path d="M285.28 105.08s-17.06-2.51-19.19-2.79-8-.66-9.8-1a24.16 24.16 0 00-3.59-.29s-1.12 1.73-.21 2.77a5.71 5.71 0 004.07 1.86c1.28-.13 14.37 1.49 16.65 1.59s6.94 1.57 7.9 1.48 2.23 1.23 3.3.64 4.47-2.19.87-4.26z" fill="#fff" stroke="#263238" stroke-linecap="round" stroke-linejoin="round"/><path d="M272.53 100.1s-15.28 4.62-19.33 5-10.16 2.24-12.45 2.94-2.73 1.64-1.65 3 1.27 2 3 1.1 12.6-2.81 14.45-3.36 4.28-.29 7.37-1.73a32 32 0 014.95-2c.92-.28 4.67.43 5.83-1.27s-2.17-3.68-2.17-3.68z" fill="#fff" stroke="#263238" stroke-linecap="round" stroke-linejoin="round"/><path d="M274.45 99.51s-17.23.84-19.37 1-8 .9-9.8 1a23.2 23.2 0 00-3.58.41s-.76 1.91.33 2.75a5.7 5.7 0 004.35 1c1.23-.37 14.39-1.33 16.64-1.67s7.12.19 8.05-.08 2.42.78 3.36 0 3.95-3.08.02-4.41z" fill="#fff" stroke="#263238" stroke-linecap="round" stroke-linejoin="round"/><path d="M268 102.48s-14.68 9-16.49 10.21-6.55 4.63-8.13 5.56a22.44 22.44 0 00-2.93 2.08s.25 2 1.62 2.26a5.72 5.72 0 004.31-1.19c.9-.92 12-8.11 13.77-9.49s6.33-3.26 7-4 2.49-.49 2.94-1.63 2.01-4.53-2.09-3.8zm36.87 60.38c-7.24 0-13.11 5.32-13.11 11.88s5.87 11.88 13.11 11.88S318 181.3 318 174.74s-5.89-11.88-13.13-11.88zm5.73 4.71c.44 1.07-3.53 4.71-4.63 4.71s-2.64-5.78-2.64-5.78c3.08-1.5 6.83 0 7.27 1.07zm-15 3.21a7.92 7.92 0 013.09-3.64s2.42-.85 2.42.43 2 2.14 2 4.07-3.08.21-5.28.86-3.1.64-2.22-1.72zm2.4 10.06c-1.33-.42-3.31-4.06-2.87-4.92s6.39-1.07 6.39-1.07a1.59 1.59 0 011.54 2.57c-1.06 1.28-3.7 3.85-5.06 3.42zm9.69 1.72c-1.32.42-4.63.42-5.07-.43s3.09-5.14 3.09-5.14 1.32-1.28 2.42-.21a13.17 13.17 0 012.87 3.42c.48 1.07-1.95 1.93-3.27 2.36zm5.95-4.71l-4-3.21c-2.21-1.07 1.32-3.21 2.86-4.07s2.42-.86 3.08 2.35a4.86 4.86 0 01-1.9 4.93zM319 107c-7.25 0-13.12 5.31-13.12 11.88s5.87 11.88 13.12 11.88 13.11-5.32 13.11-11.88S326.24 107 319 107zm5.72 4.7c.44 1.07-3.52 4.71-4.62 4.71s-2.65-5.78-2.65-5.78c3.09-1.49 6.83 0 7.27 1.07zm-15 3.22a7.86 7.86 0 013.09-3.64s2.42-.86 2.42.42 2 2.14 2 4.07-3.08.22-5.29.86-3.08.64-2.2-1.71zm2.44 10.08c-1.32-.43-3.3-4.07-2.86-4.93s6.39-1.07 6.39-1.07a1.6 1.6 0 011.54 2.57c-1.1 1.27-3.74 3.83-5.07 3.43zm9.7 1.71c-1.32.43-4.63.43-5.07-.43s3.09-5.14 3.09-5.14 1.32-1.28 2.42-.21a13.12 13.12 0 012.86 3.42c.45 1.05-1.98 1.91-3.3 2.34zm5.95-4.71l-4-3.21c-2.2-1.07 1.32-3.21 2.87-4.07s2.42-.86 3.08 2.36a4.85 4.85 0 01-1.95 4.92z" fill="#fff" stroke="#263238" stroke-linecap="round" stroke-linejoin="round"/><path d="M279.61 170.57c-7.24 0-13.11 5.32-13.11 11.88s5.87 11.88 13.11 11.88 13.11-5.32 13.11-11.88-5.87-11.88-13.11-11.88zm5.73 4.71c.44 1.07-3.53 4.71-4.63 4.71s-2.64-5.78-2.64-5.78c3.08-1.5 6.83 0 7.27 1.07zm-15 3.21a7.92 7.92 0 013.09-3.64s2.42-.86 2.42.43 2 2.14 2 4.07-3.09.21-5.29.85-3.09.64-2.21-1.71zm2.43 10.06c-1.32-.43-3.31-4.07-2.87-4.92s6.39-1.07 6.39-1.07a1.6 1.6 0 011.55 2.57c-1.1 1.28-3.74 3.87-5.06 3.42zm9.69 1.71c-1.32.43-4.62.43-5.06-.43s3.08-5.13 3.08-5.13 1.32-1.29 2.42-.22a13 13 0 012.87 3.43c.45 1.09-1.97 1.92-3.3 2.35zm5.95-4.71l-4-3.21c-2.21-1.07 1.32-3.21 2.86-4.06s2.43-.86 3.09 2.35a4.85 4.85 0 01-1.94 4.92z" fill="#fff" stroke="#263238" stroke-linecap="round" stroke-linejoin="round"/><path d="M321.47 146.72c0-3.1 2.94-6.58 2.21-9.44s-5-4.43-6.41-7-.55-7.2-2.59-9.33-6.38-1.2-8.89-2.73-3.85-5.94-6.68-6.73-6 2.33-9 2.33-6.26-3.1-9-2.33-4.21 5.23-6.68 6.74-6.86.58-8.89 2.72-1.14 6.7-2.59 9.34-5.66 4.05-6.41 7 2.21 6.34 2.21 9.44-2.94 6.58-2.21 9.45 5 4.43 6.41 7 .55 7.2 2.59 9.34 6.38 1.2 8.89 2.72 3.86 5.94 6.68 6.74 6-2.33 9-2.33 6.26 3.09 9 2.33 4.21-5.24 6.69-6.74 6.85-.58 8.88-2.72 1.14-6.7 2.59-9.34 5.66-4.05 6.41-7-2.21-6.35-2.21-9.46z" fill="#55fb9b" stroke="#263238" stroke-linecap="round" stroke-linejoin="round"/><path d="M328.63 142.48c0-3 2.81-6.27 2.11-9s-4.74-4.21-6.1-6.69-.53-6.86-2.47-8.9-6.08-1.14-8.47-2.59-3.68-5.66-6.37-6.41-5.74 2.21-8.56 2.21-6-2.94-8.57-2.21-4 5-6.37 6.41-6.53.56-8.46 2.59-1.09 6.39-2.47 8.9-5.39 3.86-6.11 6.69 2.11 6 2.11 9-2.8 6.27-2.11 9 4.75 4.22 6.11 6.69.53 6.86 2.47 8.9 6.08 1.14 8.47 2.59 3.67 5.66 6.36 6.42 5.75-2.22 8.57-2.22 6 2.95 8.56 2.22 4-5 6.37-6.42 6.53-.56 8.47-2.59 1.08-6.39 2.47-8.9 5.38-3.86 6.1-6.69-2.11-6.04-2.11-9z" fill="#55fb9b" stroke="#263238" stroke-linecap="round" stroke-linejoin="round"/><circle cx="293.08" cy="143.65" r="33" transform="rotate(-67.97 293.077 143.655)" fill="#fff" stroke="#263238" stroke-linecap="round" stroke-linejoin="round"/><path d="M288.53 131.59c0 1.26-1.48 2.28-1.48 2.28s-1.48-1-1.48-2.28 1.48-2.27 1.48-2.27 1.48 1.01 1.48 2.27zm21.62 27.53c0 1.26-1.48 2.28-1.48 2.28s-1.48-1-1.48-2.28 1.48-2.27 1.48-2.27 1.48 1.02 1.48 2.27zm-33.34-27.3c0 1.26-1.48 2.27-1.48 2.27s-1.48-1-1.48-2.27 1.48-2.28 1.48-2.28 1.48 1.02 1.48 2.28zm32.49-4.12c1.18.45 1.61 2.19 1.61 2.19a3.41 3.41 0 01-2.65.58c-1.18-.44-1.61-2.19-1.61-2.19a3.45 3.45 0 012.65-.58zm-25.79-7.63c1.17.45 1.6 2.19 1.6 2.19a3.4 3.4 0 01-2.65.58c-1.17-.44-1.6-2.19-1.6-2.19a3.44 3.44 0 012.65-.58zm1.22 38.81c1.17.44 1.6 2.19 1.6 2.19a3.44 3.44 0 01-2.65.58c-1.17-.45-1.6-2.19-1.6-2.19a3.44 3.44 0 012.65-.58zm-3.87-12.52c1.17.45 1.6 2.19 1.6 2.19a3.44 3.44 0 01-2.65.58c-1.17-.44-1.6-2.19-1.6-2.19a3.44 3.44 0 012.65-.58zm-9.33 4.1c1.17.44 1.61 2.19 1.61 2.19a3.47 3.47 0 01-2.66.58c-1.17-.45-1.6-2.19-1.6-2.19a3.44 3.44 0 012.65-.58zM296.56 120c1.18.44 1.61 2.18 1.61 2.18a3.46 3.46 0 01-2.66.59c-1.17-.45-1.6-2.19-1.6-2.19a3.4 3.4 0 012.65-.58zm-.78 34.77c1.17.44 1.6 2.18 1.6 2.18a3.4 3.4 0 01-2.65.58c-1.17-.44-1.6-2.18-1.6-2.18a3.4 3.4 0 012.65-.58zm4.88-14.1c1.17.45 1.6 2.19 1.6 2.19a3.4 3.4 0 01-2.65.58c-1.18-.44-1.61-2.18-1.61-2.18a3.46 3.46 0 012.66-.59zm15.92-6.37c1.18.45 1.61 2.19 1.61 2.19a3.44 3.44 0 01-2.65.58c-1.18-.44-1.61-2.19-1.61-2.19a3.45 3.45 0 012.65-.58zm-3.95 10.12c1.18.45 1.61 2.19 1.61 2.19a3.44 3.44 0 01-2.65.58c-1.18-.44-1.59-2.19-1.59-2.19a3.45 3.45 0 012.63-.58zm-44.53 28.93c-7 0-12.73 5.32-12.73 11.88s5.7 11.88 12.73 11.88 12.74-5.32 12.74-11.88-5.7-11.88-12.74-11.88zm5.57 4.71c.43 1.07-3.43 4.71-4.5 4.71s-2.56-5.78-2.56-5.78c2.99-1.5 6.63.01 7.06 1.07zm-14.56 3.21a7.87 7.87 0 013-3.64s2.35-.85 2.35.43 1.93 2.14 1.93 4.07-3 .21-5.14.85-2.99.65-2.14-1.71zm2.36 10.06c-1.29-.43-3.21-4.06-2.78-4.92s6.2-1.07 6.2-1.07c1.07-.43 2.57 1.28 1.5 2.57s-3.64 3.85-4.92 3.42zm9.42 1.72c-1.29.42-4.5.42-4.93-.43s3-5.14 3-5.14 1.28-1.28 2.35-.21a13.13 13.13 0 012.79 3.42c.43 1.07-1.93 1.93-3.21 2.36zm5.78-4.71l-3.86-3.21c-2.14-1.08 1.29-3.22 2.79-4.07s2.35-.86 3 2.35a4.93 4.93 0 01-1.93 4.93z" fill="#fff" stroke="#263238" stroke-linecap="round" stroke-linejoin="round"/><path fill="#263238" stroke="#263238" stroke-linecap="round" stroke-linejoin="round" d="M240.61 246.62l8.92 46.46-8.92 59.13h84.47l-11.26-37.55 1.87-31.44 9.39-36.6h-84.47z"/><path d="M338.69 274.31l-27.22 1.4 13.61-29.09s-17.36-8.45-42.23-8c-24.88-.47-42.24 8-42.24 8l13.61 29.09-27.22-1.4a120.61 120.61 0 00-1.23 18.31q.16 6.79 0 13.58a120.67 120.67 0 001.23 18.32l27.22-1.41-13.61 29.1s17.36 8.44 42.24 8c24.87.47 42.23-8 42.23-8l-13.61-29.1 27.22 1.41a120.67 120.67 0 001.23-18.32q-.17-6.78 0-13.58a120.61 120.61 0 00-1.23-18.31z" fill="#fff" stroke="#263238" stroke-linecap="round" stroke-linejoin="round"/><path d="M280.18 279.63s-4.55 3.85-3.5 5.95 5.6-2.8 6.3-4.9-.7-2.1-2.8-1.05zm8.04 4.55s-4.54 3.85-3.49 5.95 5.59-2.8 6.29-4.9-.7-2.1-2.8-1.05zm5.6 8.75s-4.55 3.85-3.5 5.95 5.6-2.8 6.3-4.9-.7-2.1-2.8-1.05zM311.31 309s-4.54 3.85-3.49 6 5.59-2.8 6.29-4.9-.7-2.1-2.8-1.1zm-20.8-33.67s-5.67-1.82-6.89.18 5.33 3.27 7.48 2.75 1.42-1.7-.59-2.93zm-15.39 1.4s-5.67-1.82-6.9.18 5.34 3.27 7.49 2.75 1.41-1.66-.59-2.93zm4.55 15.4s-5.67-1.83-6.9.17 5.34 3.27 7.49 2.76 1.41-1.71-.59-2.93zm25.33-7.6s-4.55 3.85-3.5 6 5.6-2.8 6.3-4.9-.68-2.15-2.8-1.1zm8.06 4.55s-4.54 3.85-3.49 5.95 5.59-2.8 6.29-4.9-.7-2.13-2.8-1.05z" fill="#fff" stroke="#263238" stroke-linecap="round" stroke-linejoin="round"/><path d="M296.74 289.18s-4.33-4.09-6.3-2.81 3.4 5.25 5.57 5.71 1.99-.93.73-2.9zm-.12 38.38s-4.33-4.09-6.3-2.81 3.41 5.25 5.57 5.71 2.01-.93.73-2.9zm-5.95-31.48s-4.33-4.09-6.3-2.82 3.41 5.25 5.57 5.72 2.06-.93.73-2.9zm-13.99 25.54s-4.33-4.1-6.3-2.82 3.4 5.25 5.57 5.71 2.05-.92.73-2.89zm41.98-23.79s-4.55 3.84-3.5 5.94 5.6-2.79 6.3-4.89-.7-2.1-2.8-1.05zm-3.31-17.6s-5.67-1.83-6.89.17 5.33 3.28 7.48 2.76 1.41-1.7-.59-2.93zm-15.35 1.4s-5.67-1.83-6.9.17 5.34 3.28 7.49 2.76 1.41-1.7-.59-2.93zm4.51 15.37s-5.67-1.82-6.9.18 5.33 3.27 7.49 2.76 1.41-1.69-.59-2.94zm-38.68 7.47s-4.54 3.85-3.49 5.95 5.59-2.8 6.29-4.9-.7-2.1-2.8-1.05zm8.05 4.53s-4.55 3.85-3.5 6 5.6-2.8 6.3-4.9-.68-2.1-2.8-1.1z" fill="#fff" stroke="#263238" stroke-linecap="round" stroke-linejoin="round"/><path d="M279.48 317.77s-4.55 3.85-3.5 6 5.6-2.8 6.3-4.9-.7-2.15-2.8-1.1zm19.24-46.18s-4.55 3.85-3.5 6 5.6-2.8 6.3-4.9-.7-2.15-2.8-1.1zm-22.55 28.58s-5.67-1.82-6.9.18 5.34 3.27 7.49 2.75 1.41-1.7-.59-2.93zm-15.39 1.4s-5.67-1.83-6.9.17 5.33 3.28 7.49 2.76 1.41-1.7-.59-2.93zm4.55 15.43s-5.67-1.83-6.9.17 5.33 3.27 7.48 2.76 1.42-1.74-.58-2.93zm-2.64-28.62s-4.55 3.85-3.5 5.95 5.6-2.8 6.29-4.9-.69-2.1-2.79-1.05zm8.04 4.55s-4.55 3.85-3.5 5.95 5.6-2.8 6.3-4.9-.7-2.1-2.8-1.05z" fill="#fff" stroke="#263238" stroke-linecap="round" stroke-linejoin="round"/><path d="M276.33 301.67s-4.55 3.85-3.5 5.95 5.6-2.8 6.3-4.9-.7-2.09-2.8-1.05zM273 284.08s-5.67-1.83-6.9.17 5.34 3.28 7.49 2.76 1.41-1.7-.59-2.93zm-15.37 1.4s-5.67-1.83-6.9.17 5.34 3.28 7.49 2.76 1.41-1.7-.59-2.93zm4.55 15.39s-5.67-1.82-6.9.18 5.33 3.27 7.49 2.75 1.41-1.7-.59-2.93zm7.69-29.73s-4.54 3.84-3.49 5.94 5.59-2.8 6.29-4.89-.67-2.1-2.8-1.05zm8.05 4.54s-4.55 3.85-3.5 5.95 5.6-2.8 6.3-4.9-.72-2.1-2.8-1.05zm5.6 8.75s-4.55 3.85-3.5 5.95 5.6-2.8 6.3-4.9-.7-2.1-2.8-1.05zm-3.31-17.59s-5.67-1.83-6.9.17 5.34 3.27 7.49 2.76 1.41-1.71-.59-2.93zm-15.39 1.4s-5.67-1.83-6.9.17 5.33 3.27 7.49 2.76 1.41-1.71-.59-2.93z" fill="#fff" stroke="#263238" stroke-linecap="round" stroke-linejoin="round"/><path d="M269.37 283.63s-5.67-1.83-6.9.17 5.33 3.27 7.48 2.76 1.42-1.7-.58-2.93zm30.32 33.93s3.74-4.64 2.31-6.51-5 3.81-5.26 6 1.08 1.95 2.95.51zm-8.76-2.95s3.74-4.64 2.31-6.5-5 3.8-5.26 6 1.08 1.89 2.95.5zm-6.76-8.41s4.66-4.34 3.09-5.91-6.05 3.66-6.52 5.63 1.16 1.65 3.43.28zM265 340.1s5.95.22 6.59-2-6-1.7-7.95-.61-.91 1.98 1.36 2.61zm-2.9-8.77s5.95.21 6.58-2.05-6-1.7-7.95-.61-.89 2.02 1.37 2.66zm1.74-10.24s6 .21 6.59-2-6-1.69-8-.61-.85 1.97 1.41 2.61zm9.93 10.11s3 5.17 5.22 4.51-1.75-6-3.68-7.07-2.19.36-1.54 2.56z" fill="#fff" stroke="#263238" stroke-linecap="round" stroke-linejoin="round"/><path d="M259.16 321.9s.45 5.94 2.77 6.32 1-6.17-.28-8-2.11-.63-2.49 1.68zm9.12-1.02s.46 5.94 2.77 6.32 1-6.18-.28-8-2.11-.64-2.49 1.68zm13.49 6.72s3 5.17 5.22 4.51-1.74-6-3.68-7.07-2.19.31-1.54 2.56zm-.85 9.02s6 .21 6.59-2.05-6-1.69-7.95-.61-.9 2.04 1.36 2.66z" fill="#fff" stroke="#263238" stroke-linecap="round" stroke-linejoin="round"/><path d="M282.66 326.38s6 .21 6.59-2-6-1.7-7.95-.62-.9 1.99 1.36 2.62zm-9.38 15.25s3 5.16 5.22 4.51-1.75-6-3.69-7.08-2.19.31-1.53 2.57zm-7.53-7.32s5.95.21 6.58-2.05-6-1.69-7.95-.61-.89 2.02 1.37 2.66z" fill="#fff" stroke="#263238" stroke-linecap="round" stroke-linejoin="round"/><path d="M275.68 344.42s3 5.17 5.22 4.51-1.75-6-3.69-7.07-2.21.31-1.53 2.56zm4.22-26.66s-6.36.08-6.26 2.3 6.95 1.36 8.61.21.26-2-2.35-2.51zm-5.26-3.3s6 .21 6.59-2-6-1.69-8-.61-.85 1.97 1.41 2.61zm-2.89-8.78s5.95.21 6.59-2.05-6-1.69-8-.61-.85 2.03 1.41 2.66zm1.74-10.23s5.95.21 6.59-2.05-6-1.7-8-.61-.85 2.02 1.41 2.66zm9.93 10.11s3 5.16 5.22 4.51-1.74-6-3.68-7.08-2.19.31-1.54 2.57z" fill="#fff" stroke="#263238" stroke-linecap="round" stroke-linejoin="round"/><path d="M268.81 296.26s.45 5.94 2.77 6.32 1-6.18-.28-8-2.11-.64-2.49 1.68zm9.12-1.03s.46 5.94 2.77 6.32 1-6.17-.27-8-2.12-.63-2.5 1.68zm13.49 6.77s3 5.16 5.22 4.51-1.74-6-3.68-7.08-2.19.27-1.54 2.57zm-.85 9s6 .21 6.59-2.05-6-1.7-8-.61-.85 2 1.41 2.66z" fill="#fff" stroke="#263238" stroke-linecap="round" stroke-linejoin="round"/><path d="M292.31 300.74s6 .21 6.59-2.05-6-1.69-7.95-.61-.9 2.02 1.36 2.66zM282.93 316s3 5.17 5.22 4.52-1.75-6-3.69-7.08-2.19.29-1.53 2.56zm-7.53-7.34s6 .22 6.59-2-6-1.7-8-.61-.85 1.95 1.41 2.61z" fill="#fff" stroke="#263238" stroke-linecap="round" stroke-linejoin="round"/><path d="M285.33 318.78s3 5.16 5.22 4.51-1.75-6-3.68-7.08-2.19.31-1.54 2.57zm4.23-26.66s-6.37.07-6.26 2.3 6.94 1.35 8.61.21.25-2.01-2.35-2.51zm-25.12 27.3s5.95.21 6.59-2-6-1.7-8-.62-.85 1.99 1.41 2.62zm-2.9-8.77s6 .21 6.59-2-6-1.7-7.95-.61-.9 1.96 1.36 2.61zm1.74-10.24s6 .21 6.59-2.05-6-1.69-7.95-.61-.92 2.02 1.36 2.66zm9.94 10.11s3 5.17 5.22 4.51-1.75-6-3.69-7.07-2.19.31-1.53 2.56z" fill="#fff" stroke="#263238" stroke-linecap="round" stroke-linejoin="round"/><path d="M258.61 301.22s.45 5.94 2.76 6.32 1-6.18-.27-8-2.1-.64-2.49 1.68zm9.12-1.02s.46 5.94 2.77 6.32 1-6.18-.28-8-2.11-.64-2.49 1.68zm13.49 6.72s3 5.17 5.22 4.51-1.75-6-3.68-7.07-2.2.31-1.54 2.56zm-.85 9.02s5.95.21 6.59-2.05-6-1.69-7.95-.61-.9 2.02 1.36 2.66z" fill="#fff" stroke="#263238" stroke-linecap="round" stroke-linejoin="round"/><path d="M282.11 305.7s6 .21 6.59-2.05-6-1.69-7.95-.61-.9 2.03 1.36 2.66zm-9.39 15.3s3 5.16 5.22 4.51-1.74-6-3.68-7.08-2.19.26-1.54 2.57zm-7.53-7.37s6 .21 6.59-2.05-6-1.69-7.95-.61-.9 2.03 1.36 2.66z" fill="#fff" stroke="#263238" stroke-linecap="round" stroke-linejoin="round"/><path d="M275.13 323.74s3 5.17 5.22 4.51-1.75-6-3.69-7.07-2.19.31-1.53 2.56zm4.22-26.66s-6.36.08-6.26 2.3 6.94 1.36 8.61.21.3-2-2.35-2.51z" fill="#fff" stroke="#263238" stroke-linecap="round" stroke-linejoin="round"/><path d="M268.85 301.27s6 .21 6.59-2-6-1.7-7.95-.61-.9 1.97 1.36 2.61zm-2.85-8.78s6 .21 6.59-2.05-6-1.69-8-.61-.89 2.02 1.41 2.66zm1.7-10.24s5.95.21 6.59-2.05-6-1.69-8-.61-.85 2.03 1.41 2.66zm9.93 10.11s3 5.17 5.22 4.52-1.74-6-3.68-7.08-2.17.31-1.54 2.56z" fill="#fff" stroke="#263238" stroke-linecap="round" stroke-linejoin="round"/><path d="M263 283.06s.45 5.94 2.77 6.32 1-6.17-.28-8-2.09-.63-2.49 1.68zm9.15-1.06s.45 5.94 2.77 6.32 1-6.18-.28-8-2.11-.6-2.49 1.68zm13.48 6.76s3 5.17 5.22 4.52-1.74-6-3.68-7.08-2.17.31-1.54 2.56zm-.85 9.02s6 .21 6.59-2-6-1.69-7.95-.61-.89 1.98 1.36 2.61z" fill="#fff" stroke="#263238" stroke-linecap="round" stroke-linejoin="round"/><path d="M286.53 287.55s6 .21 6.58-2.05-6-1.7-7.95-.61-.89 2.02 1.37 2.66zm-9.39 15.24s3 5.17 5.22 4.51-1.75-6-3.68-7.07-2.2.31-1.54 2.56zm-7.53-7.32s5.95.21 6.59-2.05-6-1.69-8-.61-.85 2.03 1.41 2.66z" fill="#fff" stroke="#263238" stroke-linecap="round" stroke-linejoin="round"/><path d="M279.54 305.58s3 5.17 5.22 4.52-1.74-6-3.68-7.08-2.19.31-1.54 2.56zm4.23-26.66s-6.36.08-6.26 2.3 6.94 1.36 8.61.22.25-2.01-2.35-2.52zm-12.99 10.95s6 .21 6.59-2.05-6-1.69-8-.61-.85 2.02 1.41 2.66zm-2.9-8.78s6 .21 6.59-2-6-1.69-8-.61-.85 1.98 1.41 2.61zm1.74-10.24s6 .22 6.59-2-6-1.7-7.95-.62-.9 1.99 1.36 2.62z" fill="#fff" stroke="#263238" stroke-linecap="round" stroke-linejoin="round"/><path d="M279.56 281s3 5.16 5.22 4.51-1.75-6-3.69-7.08-2.19.28-1.53 2.57zm-14.62-9.33s.46 5.94 2.77 6.32 1-6.18-.27-8-2.12-.64-2.5 1.68zm9.13-1.03s.45 5.94 2.77 6.32 1-6.17-.28-8-2.11-.63-2.49 1.68zm13.49 6.73s3 5.16 5.22 4.51-1.75-6-3.69-7.08-2.19.31-1.53 2.57z" fill="#fff" stroke="#263238" stroke-linecap="round" stroke-linejoin="round"/><path d="M286.71 286.38s6 .22 6.59-2-6-1.7-7.95-.61-.9 1.98 1.36 2.61zm1.74-10.23s6 .21 6.59-2-6-1.69-8-.61-.85 1.97 1.41 2.61zm-9.39 15.24s3 5.17 5.22 4.51-1.74-6-3.68-7.07-2.19.31-1.54 2.56zm-7.53-7.32s6 .21 6.59-2-6-1.7-7.95-.62-.9 1.99 1.36 2.62z" fill="#fff" stroke="#263238" stroke-linecap="round" stroke-linejoin="round"/><path d="M281.47 294.19s3 5.16 5.22 4.51-1.75-6-3.69-7.08-2.19.31-1.53 2.57zm4.22-26.67s-6.36.08-6.26 2.31 6.94 1.35 8.61.21.26-2.04-2.35-2.52zm4.66 56.21s5.91.72 6.74-1.47-5.86-2.21-7.87-1.3-1.07 1.94 1.13 2.77zm14.85-4.28s5.91.72 6.74-1.47-5.85-2.21-7.87-1.3-1.07 1.94 1.13 2.77zm13.11-27.57s5.91.72 6.74-1.47-5.85-2.21-7.87-1.3-1.06 1.94 1.13 2.77zm-20.48 13.31s5.91.73 6.74-1.47-5.86-2.21-7.87-1.3-1.07 1.94 1.13 2.77zm-37.44 33.59s5.92.72 6.75-1.47-5.86-2.21-7.88-1.3-1.06 1.99 1.13 2.77zm20.4 1.87s3.74-4.64 2.32-6.51-5 3.81-5.26 6 1.08 1.93 2.94.51zM272 337.7s3.74-4.64 2.32-6.5-5 3.8-5.26 6 1.11 1.92 2.94.5zm-7.11-7.54s3.74-4.63 2.31-6.5-5 3.81-5.26 6 1.06 1.93 2.95.5zm6.56 16.66s5.92.72 6.75-1.47-5.86-2.21-7.88-1.3-1.06 1.95 1.13 2.77zm14.86-4.28s5.91.72 6.74-1.47-5.86-2.21-7.87-1.3-1.07 1.94 1.13 2.77zm-7.37-14.26s5.91.73 6.74-1.47-5.86-2.21-7.87-1.3-1.07 1.94 1.13 2.77zm-16.69-22.62s3.74-4.64 2.32-6.5-5 3.8-5.26 6 1.08 1.93 2.94.5zm-8.76-2.95s3.74-4.63 2.32-6.5-5 3.81-5.26 6 1.08 1.93 2.94.5zm-7.14-7.53s3.74-4.64 2.31-6.5-5 3.8-5.26 6 1.08 1.93 2.95.5zm6.56 16.65s5.92.73 6.74-1.47-5.85-2.2-7.87-1.29-1.06 1.93 1.13 2.76zm14.86-4.27s5.91.72 6.74-1.48-5.86-2.2-7.87-1.29-1.07 1.94 1.13 2.77zm-7.38-14.26s5.92.72 6.75-1.47-5.86-2.21-7.88-1.3-1.06 1.94 1.13 2.77z" fill="#fff" stroke="#263238" stroke-linecap="round" stroke-linejoin="round"/><path d="M300.12 264.24s-5.25-5.25-9.45-3.15-6.64 2.45-10.14.7-6.78-1.71-7 1.75 2.42 4.4 4.55 3.85 2.1 1.75 2.1 4.55.58 4.34 3.44 3.57 6.31-3.11 6.89-.18 3.31 4.65 4.71 2.21 5.95-7.35 6.3-4.9 3.5 1.75 4.9-1.75 3.84-7.35.35-7.7a14.73 14.73 0 00-6.65 1.05z" fill="#55fb9b" stroke="#263238" stroke-linecap="round" stroke-linejoin="round"/><path d="M294.17 271.24a7.58 7.58 0 01-1.4 4.9c-1.67 2.12-1.52 4 .29 5.66s5.2 7.48 3.68 7.38-2.92 3.75-2.92 3.75l2.8 1.05s-2.8 2.45-1.4 4.55 5.41 4.3 7.35 1.4 1.43.14 1.94-2.91 5.41 2.56 5.06-2-4.2-6.3-3.85-7.35.35.7 2.1-2.1 3-4.76.64-5.18-2.39-.42-1-2.51 3.14-3.15.35-4.2-.7.35-1.4-2.8 0-4.55-3.15-3.85-3.15 3.5-5.6 1.75-4.54-3.84-3.49 2.46z" fill="#55fb9b" stroke="#263238" stroke-linecap="round" stroke-linejoin="round"/><path d="M307.47 282.08a7.58 7.58 0 01-1.4 4.9c-1.67 2.13-1.52 4 .29 5.67s5.19 7.48 3.67 7.38-2.91 3.74-2.91 3.74l2.8 1.05s-2.8 2.45-1.4 4.55 5.4 4.3 7.34 1.4 1.43.15 1.94-2.9 5.41 2.55 5.06-2-4.2-6.29-3.85-7.34.35.7 2.1-2.1 3-4.76.64-5.18-2.39-.42-1-2.52 3.15-3.15.35-4.2-.7.35-1.4-2.8 0-4.54-3.15-3.84-3.15 3.49-5.6 1.74-4.53-3.84-3.48 2.45z" fill="#55fb9b" stroke="#263238" stroke-linecap="round" stroke-linejoin="round"/><path d="M306.64 322.21a7.59 7.59 0 012.45-4.47c2.1-1.7 2.37-3.55 1-5.59s-3.4-8.44-1.95-8 3.68-3 3.68-3l-2.5-1.65s3.28-1.77 2.38-4.12-4.32-5.39-6.86-3-1.36-.46-2.53 2.4-4.71-3.68-5.38.83 2.7 7.07 2.13 8-.19-.76-2.51 1.58-4 4-1.78 4.9 2.24.94.41 2.68-3.77 2.37-1.27 4 .76-.19.74 3-1 4.43 2.22 4.45 3.85-2.72 5.85-.47 3.55 4.83 3.92-1.54z" fill="#55fb9b" stroke="#263238" stroke-linecap="round" stroke-linejoin="round"/><path d="M296.84 324.29s-.22 7.12-2.32 10.62-7 3.5-6.3 4.9 3.36.42 4.83 1.26 2.17 2.59 3.92.49 1.75-3.5 3.85-2.45 3.5-1.05 3.5-2.8 1.4 0 4.2-1.4 1.74-1.05 1.74-3.5 3-2.19 2.1-5.25-3.84 0-5.94.35-.47-.13-3.73-2.69-5.63-2.82-5.85.47z" fill="#55fb9b" stroke="#263238" stroke-linecap="round" stroke-linejoin="round"/><path d="M293.17 315.46s-7.05 1.05-10.86-.4-4.69-6.26-5.94-5.32.18 3.37-.39 5-2.16 2.6.22 3.94 3.75 1.1 3.09 3.36 1.66 3.25 3.38 2.94.25 1.38 2.12 3.89 1.35 1.53 3.76 1.1 2.69 2.55 5.53 1.13-.68-3.79-1.4-5.79.06-.48 2-4.15 1.76-6.07-1.51-5.7z" fill="#55fb9b" stroke="#263238" stroke-linecap="round" stroke-linejoin="round"/><path d="M248.06 316.82a.9.9 0 01-.85-.6 3.64 3.64 0 010-3c.74-1.34 2.39-1.75 4.14-2.18a8.46 8.46 0 003.9-1.64 1.15 1.15 0 00.44-1c-.34-2-5.7-4.55-7.72-5.52-2.22-1.07-3.72-3.84-4-7.39-.32-4.12 1.13-7.93 3.7-9.71 2.35-1.61 5.61-2.48 8.76-3.31 3.31-.87 6.44-1.7 7.56-3.19.78-1.05-1.44-4-3.22-6.33-2.57-3.39-5.22-6.89-3.09-9.13 3.27-3.45 14.58-3.55 15.86-3.55a.9.9 0 110 1.79c-3.26 0-12.23.54-14.56 3-1.08 1.14 1.3 4.29 3.22 6.82 2.48 3.27 4.82 6.36 3.22 8.48s-4.91 2.9-8.53 3.86c-3 .79-6.11 1.61-8.2 3s-3.2 4.59-2.93 8.09c.22 2.87 1.36 5.13 3 5.91 4.94 2.37 8.31 4.45 8.72 6.84a2.91 2.91 0 01-.94 2.62 9.8 9.8 0 01-4.74 2.11c-1.36.34-2.64.65-3 1.3a2 2 0 00.09 1.55.9.9 0 01-.56 1.14 1 1 0 01-.27.04z" fill="#fff" stroke="#263238" stroke-linecap="round" stroke-linejoin="round"/><path d="M253.13 316.49a.93.93 0 01-.46-.12c-.91-.55-1.74-1.18-1.7-2.08s.91-1.33 1.82-1.77c1.41-.67 2.33-1.2 2.23-2.41a2.7 2.7 0 00-.11-.64c-.15 0-.38.1-.56.15-1.31.38-3.74 1.1-6.61-1.91-1.11-1.17-1.53-2.21-1.28-3.18.42-1.61 2.5-2.25 4.33-2.82a11.39 11.39 0 001.93-.7c-.53-.51-2-.51-3.35-.51-2.09 0-4.51 0-5.53-1.81-1.25-2.22.73-3.5 2.65-4.73a16 16 0 004.29-3.61c1.1-1.45.73-2.08.17-3-.87-1.52-1.42-3.08 1.44-5.45 3.1-2.56 6.64-1.28 9.48-.25 1.8.66 3.36 1.22 4.08.59 2.14-1.87 4.25-4.51 3.78-6.35-.38-1.53-2.59-2.33-4.37-2.74-3.77-.86-5.87-2.32-6.25-4.33-.58-3.09 3.07-6.08 5.3-7.59a28 28 0 003-2.26.89.89 0 01.77-.83 1 1 0 011.08.61c.3.76 0 1.3-3.89 4-3.07 2.09-4.82 4.3-4.54 5.77.23 1.24 1.93 2.25 4.89 2.92 3.3.76 5.23 2.12 5.71 4.05.81 3.21-2.76 6.76-4.33 8.14s-3.65.56-5.89-.25c-2.66-1-5.41-2-7.71-.06-1.94 1.6-1.63 2.12-1 3.17a3.91 3.91 0 01-.3 5 17.44 17.44 0 01-4.75 4c-2.23 1.45-2.39 1.76-2.06 2.35.51.9 2.27.9 4 .9 2 0 4.14 0 5 1.55a1.5 1.5 0 01.12 1.34c-.37 1-1.62 1.34-3.2 1.83-1.17.36-2.95.91-3.12 1.55-.08.3.23.86.83 1.49 2.12 2.22 3.62 1.78 4.82 1.43a2.33 2.33 0 012.09 0 2.6 2.6 0 01.86 2c.22 2.54-1.94 3.57-3.24 4.18l-.57.29a6.75 6.75 0 00.6.4.89.89 0 01-.46 1.66zm15.34-56.62z" fill="#fff" stroke="#263238" stroke-linecap="round" stroke-linejoin="round"/><path d="M254.11 320.58a.9.9 0 01-.9-.89 1.78 1.78 0 01.89-1.34 5.58 5.58 0 002.24-3.76c.37-1.78.16-2.2-.22-3a9.57 9.57 0 01-1.1-4.32c-.22-3.31 1.2-4.26 2.35-5a2.48 2.48 0 001.42-1.87c.14-.94-.53-1.39-2-2.13-.94-.48-1.92-1-2.22-1.92a2.11 2.11 0 01.21-1.64c1-1.78 2.83-1.88 4.49-2a6.62 6.62 0 003.49-.8c.76-.53.78-1 .74-2.28a7.74 7.74 0 011.93-6 7.58 7.58 0 013.64-2.76c.66-.24.93-.33 1.51-2.38.71-2.48-.54-3.33-3.43-5a28.71 28.71 0 01-3.63-2.38c-1.07-.86-1.51-1.73-1.31-2.6.4-1.79 3.33-2.47 6.43-3.19a23.32 23.32 0 002.94-.8.89.89 0 11.71 1.64 21.32 21.32 0 01-3.25.91c-1.35.31-4.94 1.15-5.08 1.84 0 0 0 .26.68.8a26.88 26.88 0 003.42 2.23c2.76 1.61 5.37 3.13 4.25 7.06-.76 2.66-1.39 3.13-2.63 3.58a5.89 5.89 0 00-2.88 2.22 6 6 0 00-1.51 4.77c.05 1.28.1 2.72-1.52 3.83a8.22 8.22 0 01-4.41 1.12c-1.61.08-2.54.17-3 1a.48.48 0 00-.09.25c.07.23.86.62 1.32.86 1.32.66 3.3 1.67 2.95 4a4.19 4.19 0 01-2.19 3.09c-1 .66-1.71 1.15-1.56 3.42a8 8 0 00.91 3.63c.55 1.08.84 1.9.38 4.14a7.29 7.29 0 01-2.89 4.8l-.19.29a.9.9 0 01-.89.58z" fill="#fff" stroke="#263238" stroke-linecap="round" stroke-linejoin="round"/><path d="M255.91 310.93a.78.78 0 01-.26 0 .9.9 0 01-.6-1.12c.14-.46-.37-.86-1.64-1.65a5.5 5.5 0 01-2.6-2.55c-.6-1.79.32-2.83 1.49-4.15a24.49 24.49 0 001.89-2.36 1.75 1.75 0 00.41-1c-.07-.33-.63-.71-1.23-1.11a6.43 6.43 0 01-2.71-2.91c-.91-2.33 1.83-3.4 4.24-4.35 2-.8 4.37-1.7 4.92-3.16.36-1-.48-1.64-2.62-2.84-1.43-.8-2.91-1.63-3.26-3a2.57 2.57 0 01.39-2 5.89 5.89 0 014.23-2.8c1.09-.25 1.58-.39 1.93-1.18s-1.16-2.53-2.51-4c-1.56-1.7-3.18-3.46-3.45-5.33-.58-4.05 5.18-6.72 5.43-6.83a.88.88 0 011.18.44.9.9 0 01-.44 1.19c-1.33.61-4.71 2.68-4.39 4.95.19 1.32 1.68 2.94 3 4.37 1.89 2.05 3.68 4 2.83 5.93a3.83 3.83 0 01-3.17 2.21 4.14 4.14 0 00-3.1 2c-.25.39-.2.59-.18.65.15.6 1.34 1.26 2.39 1.85 1.85 1 4.39 2.46 3.43 5-.83 2.22-3.55 3.28-5.94 4.21-2 .78-3.47 1.41-3.23 2a4.9 4.9 0 002 2.07 3.86 3.86 0 012 2.27 3.16 3.16 0 01-.69 2.38 24.85 24.85 0 01-2 2.54c-1.17 1.33-1.38 1.65-1.13 2.4.18.55 1.07 1.1 1.85 1.58 1.25.78 3 1.85 2.41 3.71a.91.91 0 01-.87.59z" fill="#fff" stroke="#263238" stroke-linecap="round" stroke-linejoin="round"/><path d="M259.18 319.76a.9.9 0 01-.42-.1.91.91 0 01-.37-1.22c1.2-2.23-.1-3.32-2.23-4.73a5.37 5.37 0 01-1.66-1.4c-1.1-1.75.28-7.92 1.43-10.2.25-.52 0-.84-1.9-2a11.62 11.62 0 01-3.05-2.29 2.44 2.44 0 01-.78-2.22c.31-1 1.44-1.3 2.89-1.68a21.73 21.73 0 002.49-.78 3.61 3.61 0 002.2-1.8 3.21 3.21 0 00-.37-2.56c-1.11-2.26 1.65-5 5.14-8.43.83-.82 1.69-1.67 2.53-2.55a2.54 2.54 0 00.94-1.71c0-.72-1-1.48-2-2.29-1.45-1.15-3.1-2.46-3.42-4.56-.78-5.07 8.36-6.68 8.75-6.75a.9.9 0 01.3 1.77c-2 .34-7.7 1.95-7.28 4.7.22 1.42 1.51 2.44 2.76 3.44s2.59 2.05 2.69 3.57a4.1 4.1 0 01-1.44 3.08c-.85.89-1.72 1.75-2.56 2.57-2.5 2.47-5.33 5.27-4.79 6.36a4.89 4.89 0 01.44 4 5.26 5.26 0 01-3.22 2.82 22.42 22.42 0 01-2.69.85 10.67 10.67 0 00-1.58.5 3 3 0 00.37.51 10.09 10.09 0 002.6 1.9c1.64 1 3.67 2.15 2.59 4.32-1.18 2.36-2 7.64-1.51 8.45a6.16 6.16 0 001.13.86c1.71 1.13 4.89 3.23 2.82 7.07a.89.89 0 01-.8.5z" fill="#fff" stroke="#263238" stroke-linecap="round" stroke-linejoin="round"/><path d="M249.2 300.62a.89.89 0 01-.66-.29 7.68 7.68 0 01-.44-8.9c1.47-2.58 3.76-3.22 5.6-3.73s2.84-.84 3-2.34c.07-.55.13-1 .18-1.46.38-3.09.55-3.79 3.17-5.1 1.63-.82 4-3.93 4.58-6.06a1.66 1.66 0 00.08-1c-.17-.18-.48-.43-.83-.72-1.85-1.53-5.71-4.7-2.18-9.34a18.75 18.75 0 013.79-3.83c1.07-.84 1.24-1 1.11-2.25a.88.88 0 01.79-1 .89.89 0 011 .8c.23 2.15-.49 2.83-1.79 3.84a17.18 17.18 0 00-3.46 3.5c-2.3 3-.5 4.9 1.89 6.87a12.39 12.39 0 011 .88 2.37 2.37 0 01.46 2.14c-.46 2.61-3.35 6.57-5.63 7.71-1.84.93-1.84.93-2.18 3.72-.06.43-.12.92-.19 1.48-.37 2.74-2.48 3.32-4.34 3.83-1.68.47-3.42.95-4.53 2.89a5.86 5.86 0 00.22 6.81.89.89 0 01-.07 1.26.87.87 0 01-.57.29z" fill="#fff" stroke="#263238" stroke-linecap="round" stroke-linejoin="round"/><path d="M245.44 317.64a.91.91 0 01-.75-.4c-1.79-2.69.4-5 1.58-6.25.17-.17.37-.39.5-.54a6.38 6.38 0 00-1.15-.64l-.58-.28a2.48 2.48 0 01-1.28-1.49c-.35-1.1 0-2.6.89-4.32a.79.79 0 00.12-.31 5.54 5.54 0 00-.64-.51 9.3 9.3 0 01-3.63-4.84c-1.93-5.46 2.21-13.32 6.72-15.2 2.93-1.22 2.93-1.26 2.9-2.44v-.65c0-1.68 1.88-2.61 3.88-3.6 1.43-.7 3-1.49 3.61-2.43.32-.53.35-.59-1-1.64a14 14 0 01-4.28-5c-2.38-4.75.91-8.2 3-9.37a.9.9 0 01.88 1.57c-.2.11-4.45 2.61-2.26 7a12.32 12.32 0 003.79 4.42c1.21.95 2.58 2 1.41 4-.83 1.39-2.62 2.27-4.34 3.12-1.15.57-2.89 1.42-2.89 2v.6c.06 2.16-.42 2.66-4 4.15-3.38 1.41-7.4 8.2-5.71 12.94a7.47 7.47 0 003 4c.82.6 1.95 1.43 1 3.12a4.51 4.51 0 00-.76 2.92.69.69 0 00.37.43l.55.27c1.15.55 2.24 1.07 2.24 2.33 0 .6-.42 1-1.06 1.71-1.3 1.37-2.31 2.62-1.38 4a.91.91 0 01-.25 1.25.94.94 0 01-.48.08z" fill="#fff" stroke="#263238" stroke-linecap="round" stroke-linejoin="round"/><path d="M250.37 313.05c-.6 0-1-.67-1.27-1.07a.87.87 0 010-1c-.28-.7-.76-1.8-1.55-3.54a62.89 62.89 0 00-3.25-6c-2.6-4.37-4.85-8.14-2-11.5 3.71-4.42 6.72-4.77 10.38-3.9l.52.12c2.87.69 3.11.75 7.24-.28 4.95-1.24 5.83-2.88 6-4.33 0-.31.1-.6.15-.88.3-1.6.43-2.26-2.87-3.56-4.78-1.87-6-3.28-7.27-5.06-1.64-2.34-4-6.68-1.4-9.47s8.74-3.6 9.83-3.38c.62.13 2.84.27 3.64.31a.9.9 0 01.84.95.88.88 0 01-.94.84c-.31 0-3-.17-3.89-.34s-6.21.75-8.17 2.84c-1.8 1.94.49 5.69 1.56 7.22s2.14 2.73 6.46 4.42 4.4 3.31 4 5.56c-.05.26-.1.52-.14.81-.41 2.84-2.68 4.64-7.38 5.81-4.4 1.1-4.9 1.05-8.09.29l-.51-.12c-3.22-.77-5.43-.47-8.6 3.3-1.91 2.28-.56 4.8 2.19 9.43a64 64 0 013.34 6.15c2.45 5.36 2.49 5.74 1.62 6.21a1 1 0 01-.44.17z" fill="#fff" stroke="#263238" stroke-linecap="round" stroke-linejoin="round"/><path d="M226.31 253.34l59.26 112.28 4.68-2.35-62.11-110.93a1 1 0 00-1.25-.47h0a1 1 0 00-.58 1.47zm4.69-2.15l66.27 108.28 4.52-2.63-69-106.76a1 1 0 00-1.28-.4h0a1 1 0 00-.51 1.51z" fill="#fff" stroke="#263238" stroke-linecap="round" stroke-linejoin="round"/><path fill="#55fb9b" d="M211.5 210.66h143.17v20.26H211.5zm0 153.3h143.17v20.26H211.5z"/><path fill="none" stroke="#263238" stroke-linecap="round" stroke-linejoin="round" d="M215.64 218.48h41.9m-41.9 5.07h57.09"/><path d="M320.53 226.08v-1a2.22 2.22 0 01-1.72-.74 3.37 3.37 0 01-.62-2.07l1.58-.26a3.9 3.9 0 00.12.93 1.09 1.09 0 00.28.56.69.69 0 00.49.18.51.51 0 00.48-.22 1.08 1.08 0 00.13-.52 1.61 1.61 0 00-.27-1 3.65 3.65 0 00-.72-.78l-.95-.81a6.67 6.67 0 01-.58-.62 2.63 2.63 0 01-.41-.71 2.75 2.75 0 01-.15-.95 2.19 2.19 0 01.6-1.64 2.52 2.52 0 011.6-.67v-1h.54v1a2.18 2.18 0 011 .28 1.69 1.69 0 01.59.6 3 3 0 01.29.79 6.46 6.46 0 01.11.84l-1.6.23a5 5 0 00-.07-.73 1 1 0 00-.2-.5.51.51 0 00-.44-.17.58.58 0 00-.48.25.9.9 0 00-.16.53 1.31 1.31 0 00.24.82 6.31 6.31 0 00.56.61l.93.8a6.68 6.68 0 01.68.73 3.55 3.55 0 01.51.86 3.07 3.07 0 01.19 1.09 2.38 2.38 0 01-.24 1.08 2 2 0 01-.7.79 2.31 2.31 0 01-1.06.36v1.05zm3.26-1.15v-1.22l2.2-3.39c.17-.25.32-.49.47-.72a5.26 5.26 0 00.36-.71 2.25 2.25 0 00.14-.78 1.16 1.16 0 00-.17-.67.55.55 0 00-.48-.22.7.7 0 00-.52.18.91.91 0 00-.24.49 2.73 2.73 0 00-.07.66v.45h-1.69v-.45a4 4 0 01.25-1.43 2.14 2.14 0 01.8-1 2.6 2.6 0 011.42-.35 2.37 2.37 0 011.8.63 2.43 2.43 0 01.61 1.75 2.93 2.93 0 01-.17 1 4.68 4.68 0 01-.44.9l-.59.89-1.74 2.62h2.69v1.37zm8.02.15a2.58 2.58 0 01-1.46-.34 1.75 1.75 0 01-.68-1 5 5 0 01-.19-1.47h1.67a4.87 4.87 0 00.06.83.93.93 0 00.22.5.62.62 0 00.49.16.55.55 0 00.47-.25 1.69 1.69 0 00.18-.67v-1a5.39 5.39 0 00-.06-.85 1.28 1.28 0 00-.21-.58.6.6 0 00-.5-.21.66.66 0 00-.5.21 1.33 1.33 0 00-.28.61h-1.48l.12-5.15h4.16v1.49h-2.74l-.1 2a1 1 0 01.46-.29 2.17 2.17 0 01.68-.14 1.66 1.66 0 011.17.26 2 2 0 01.69 1 5 5 0 01.22 1.6 9.13 9.13 0 01-.09 1.32 2.89 2.89 0 01-.34 1.05 1.9 1.9 0 01-.74.69 2.81 2.81 0 01-1.22.23zm3.32-.15v-1.65h1.61v1.65zm5.11.15a2.56 2.56 0 01-1.36-.33 2.1 2.1 0 01-.8-.92 3.24 3.24 0 01-.27-1.36v-4.06a3.35 3.35 0 01.26-1.39 2 2 0 01.79-.93 2.52 2.52 0 011.38-.34 2.41 2.41 0 011.35.34 2 2 0 01.79.93 3.52 3.52 0 01.26 1.39v4.06a3.24 3.24 0 01-.27 1.36 2.12 2.12 0 01-.81.92 2.46 2.46 0 01-1.32.33zm0-1.52a.48.48 0 00.43-.19 1 1 0 00.18-.45 2.82 2.82 0 000-.48v-4a4.63 4.63 0 000-.51 1.11 1.11 0 00-.18-.46.5.5 0 00-.44-.2.53.53 0 00-.46.2 1.11 1.11 0 00-.18.46 4.75 4.75 0 000 .51v4a2.9 2.9 0 00.05.48.92.92 0 00.19.45.51.51 0 00.41.19zm6.06 1.52a2.55 2.55 0 01-1.35-.33 2.1 2.1 0 01-.8-.92 3.24 3.24 0 01-.27-1.36v-4.06a3.35 3.35 0 01.26-1.39 2 2 0 01.79-.93 2.49 2.49 0 011.37-.34 2.43 2.43 0 011.36.34 2 2 0 01.79.93 3.52 3.52 0 01.26 1.39v4.06a3.24 3.24 0 01-.27 1.36 2.12 2.12 0 01-.81.92 2.47 2.47 0 01-1.33.33zm0-1.52a.49.49 0 00.44-.19 1 1 0 00.18-.45 2.82 2.82 0 000-.48v-4a3.08 3.08 0 000-.51 1 1 0 00-.17-.46.61.61 0 00-.9 0 1.11 1.11 0 00-.18.46 4.75 4.75 0 000 .51v4a2.9 2.9 0 00.05.48.92.92 0 00.19.45.49.49 0 00.39.19z" fill="#263238"/><path fill="none" stroke="#263238" stroke-linecap="round" stroke-linejoin="round" d="M215.64 372.7h41.9m-41.9 5.07h57.09"/><path d="M320.3 380.49v-1a2.22 2.22 0 01-1.72-.74 3.36 3.36 0 01-.62-2.06l1.58-.27a3.9 3.9 0 00.12.93 1.18 1.18 0 00.28.56.69.69 0 00.49.18.51.51 0 00.48-.22 1.07 1.07 0 00.13-.51 1.65 1.65 0 00-.27-1 3.65 3.65 0 00-.72-.78l-.95-.81a6.67 6.67 0 01-.58-.62 2.44 2.44 0 01-.56-1.66 2.19 2.19 0 01.6-1.64 2.55 2.55 0 011.61-.67v-1h.53v1a2.18 2.18 0 011 .28 1.69 1.69 0 01.59.6 3 3 0 01.29.79 5.1 5.1 0 01.11.84l-1.6.23a5 5 0 00-.07-.73 1 1 0 00-.2-.5.48.48 0 00-.44-.16.55.55 0 00-.48.24.9.9 0 00-.16.53 1.24 1.24 0 00.25.82 6.18 6.18 0 00.55.61l.93.8a5.83 5.83 0 01.68.73 3.55 3.55 0 01.51.86 3.13 3.13 0 01.19 1.1 2.37 2.37 0 01-.24 1.07 1.91 1.91 0 01-.7.79 2.27 2.27 0 01-1.06.36v1.05zm5.7-.99a2.6 2.6 0 01-1.44-.35 1.9 1.9 0 01-.77-1 4.15 4.15 0 01-.23-1.42v-.33h1.72v.31a4.38 4.38 0 00.07.72.84.84 0 00.22.43.69.69 0 00.45.14.61.61 0 00.45-.15 1 1 0 00.2-.44 4.67 4.67 0 00.05-.72 2.18 2.18 0 00-.2-1.05.84.84 0 00-.8-.39h-.3V374h.26a.93.93 0 00.83-.33 1.88 1.88 0 00.21-1 1.91 1.91 0 00-.15-.84.6.6 0 00-.58-.3.54.54 0 00-.56.33 2.55 2.55 0 00-.15.86v.4h-1.72v-.49a2.88 2.88 0 01.29-1.34 2 2 0 01.83-.85 2.76 2.76 0 011.31-.29 2.79 2.79 0 011.31.28 1.9 1.9 0 01.84.82 2.79 2.79 0 01.28 1.33 2.44 2.44 0 01-.33 1.32 1.48 1.48 0 01-.81.67 1.32 1.32 0 01.59.37 1.7 1.7 0 01.41.68 3.65 3.65 0 01.14 1.07 4.32 4.32 0 01-.23 1.45 2.06 2.06 0 01-.77 1 2.51 2.51 0 01-1.42.36zm5.8 0a2.55 2.55 0 01-1.35-.34 2.07 2.07 0 01-.81-.92 3.24 3.24 0 01-.26-1.36v-4.06a3.52 3.52 0 01.25-1.39 2 2 0 01.8-.93 2.91 2.91 0 012.73 0 2 2 0 01.79.93 3.52 3.52 0 01.25 1.39v4.06a3.4 3.4 0 01-.26 1.36 2.07 2.07 0 01-.81.92 2.5 2.5 0 01-1.33.34zm0-1.52a.5.5 0 00.44-.2 1 1 0 00.18-.45 2.74 2.74 0 000-.48v-4a3.12 3.12 0 000-.52 1 1 0 00-.17-.46.61.61 0 00-.9 0 1 1 0 00-.18.46 3.12 3.12 0 000 .52v4a4.23 4.23 0 000 .48 1 1 0 00.19.45.53.53 0 00.44.22zm3.56 1.36v-1.64H337v1.64zm5.1.16a2.55 2.55 0 01-1.35-.34 2 2 0 01-.8-.92 3.24 3.24 0 01-.27-1.36v-4.06a3.35 3.35 0 01.26-1.39 2 2 0 01.79-.93 2.49 2.49 0 011.37-.34 2.43 2.43 0 011.36.34 2 2 0 01.79.93 3.52 3.52 0 01.26 1.39v4.06a3.24 3.24 0 01-.27 1.36 2.07 2.07 0 01-.81.92 2.48 2.48 0 01-1.33.34zm0-1.52a.49.49 0 00.44-.2 1 1 0 00.18-.45 2.74 2.74 0 000-.48v-4a3.12 3.12 0 000-.52 1 1 0 00-.17-.46.61.61 0 00-.9 0 1.11 1.11 0 00-.18.46 4.73 4.73 0 000 .52v4a2.8 2.8 0 000 .48.92.92 0 00.19.45.5.5 0 00.44.22zm6.07 1.52a2.55 2.55 0 01-1.35-.34 2 2 0 01-.8-.92 3.24 3.24 0 01-.27-1.36v-4.06a3.52 3.52 0 01.25-1.39 2 2 0 01.8-.93 2.49 2.49 0 011.37-.34 2.45 2.45 0 011.36.34 2 2 0 01.79.93 3.52 3.52 0 01.26 1.39v4.06a3.24 3.24 0 01-.27 1.36 2.07 2.07 0 01-.81.92 2.48 2.48 0 01-1.33.34zm0-1.52a.5.5 0 00.44-.2 1 1 0 00.18-.45 2.74 2.74 0 000-.48v-4a3.12 3.12 0 000-.52 1 1 0 00-.17-.46.51.51 0 00-.45-.2.52.52 0 00-.45.2 1.11 1.11 0 00-.18.46 4.73 4.73 0 000 .52v4a2.8 2.8 0 00.05.48.92.92 0 00.19.45.5.5 0 00.39.22z" fill="#263238"/><path d="M141.93 137.32s.4 9.19.2 11.79-2.2 4.8-2.2 6.2 3.4 6.79 1.8 9.39a5.86 5.86 0 01-4.2 2.8s-2.8 9.59-5.6 11.39-11.39-3.8-11.39-3.8l-4.2 14-18.19-15.6 7.6-12.39s-3.6-11.39-3.8-19.39 3.4-17 11.6-19.58 12.19-.4 13.39-.4 2.2-5.2 7.59-4.6 5 5.6 7.4 6.8 6.19-2.2 8.59.39a9.77 9.77 0 01.4 12.6c-3.6 4.79-8.99.4-8.99.4z" fill="#fff" stroke="#263238" stroke-linecap="round" stroke-linejoin="round"/><path d="M131.93 178.89c2.8-1.8 5.6-11.39 5.6-11.39s-1.8-4.4-4-5.4-12 .4-14.79 1.2-1-10.59-.4-14 4.8-3.6 7.4-3.8 4.79-1.8 4.4-4.4-.8-5.39 2.79-6.59 9 2.8 9 2.8 5.39 4.39 9-.4a9.77 9.77 0 00-.4-12.6c-2.4-2.59-6.19.8-8.59-.39s-2-6.2-7.4-6.8-6.39 4.6-7.59 4.6-5.2-2.2-13.39.4-11.8 11.59-11.6 19.58 3.8 19.39 3.8 19.39c2.2-.8 4.6-2.8 4.4-5s0-1-1.6-3.2a6.49 6.49 0 01.8-8.4c2.6-2.8 4.79 3 4.79 3s-3.39 14.59-3.59 18.39 10 9.19 10 9.19 8.58 5.62 11.37 3.82z" fill="#263238" stroke="#263238" stroke-linecap="round" stroke-linejoin="round"/><path d="M137.13 156.31c-.34 1-1 1.78-1.38 1.65s-.48-1.1-.14-2.15 1-1.79 1.38-1.65.48 1.1.14 2.15z" fill="#263238"/><path d="M134.13 150.51s3-1.6 5.2.4" fill="none" stroke="#263238" stroke-linecap="round" stroke-linejoin="round"/><path d="M129.34 164.3a10.8 10.8 0 004.19 4" fill="none" stroke="#fff" stroke-linecap="round" stroke-linejoin="round"/><path d="M128.74 197.28a40 40 0 00-3.8-5.4c-2.6-3.19-4-3.64-3.16-4.54 1.92-1.91 3.16-1 5.75.59a22.08 22.08 0 014.8 4.35s-4-7-3.79-9 1.6-2.2 3-1.4 3.8 6.6 3.8 6.6a25.86 25.86 0 015.6 1.39c2.4 1 5.57-.32 5.77 2.48s-3.37 13.71-3.37 13.71l-4.6 24.19s-2.4 16.39-4.6 21.39-4 5.79-4 5.79l-3-20s7.19-28.39 6.79-30.39-3.2-5-4.19-7.39z" fill="#fff" stroke="#263238" stroke-linecap="round" stroke-linejoin="round"/><path d="M132.33 192.28s5.2 2.6 6.4 5.6a15.33 15.33 0 011 6" fill="none" stroke="#263238" stroke-linecap="round" stroke-linejoin="round"/><path d="M130.48 179.82s-3.09.3-3.24 1.77.44 3.1 1.62 3.1 3.39-.15 3.69-1.62-.74-3.69-2.07-3.25zm8.26 5.18s-3 0-2.65 1.48.88 7.37 1.91 7.81 2.66 1 2.81-.44.44-4.42-.15-6.05a7.83 7.83 0 00-1.92-2.8z" fill="#fff" stroke="#263238" stroke-linecap="round" stroke-linejoin="round"/><path d="M139.77 185.87a3.68 3.68 0 013.1.14c1.33.89 1.33 2.07 1.18 4.28s-.74 5.16-1.62 5.46-1.62-1.92-1.62-1.92.73-4.13-.15-6.05z" fill="#fff" stroke="#263238" stroke-linecap="round" stroke-linejoin="round"/><path d="M144.2 187.05s2.5.44 2.8 1.91-.44 6.34-1.92 7.52-2.65-.73-2.65-.73a22.66 22.66 0 001.62-5.46c.15-2.06.15-3.24.15-3.24z" fill="#fff" stroke="#263238" stroke-linecap="round" stroke-linejoin="round"/><path d="M78.17 203.88l4 43S79.57 280 80 283s1.19 4.2 3 4.2h44.18s4.59-.4 5.39-2.4 1.4-1 1-6-1.4-30.18-2.4-38.78-.4-17.78-3.79-31-6-14-10.6-17.59-12.63-10.54-21.78-8.14-16.83 20.59-16.83 20.59z" fill="#55fb9b" stroke="#263238" stroke-linecap="round" stroke-linejoin="round"/><path d="M124.14 200.08a14.77 14.77 0 00-2.6-7.8c-2.6-3.59-10.59-9-14.59-14.39s-11.39-8.59-13.39-7.79A70.58 70.58 0 0079 179.29c-6.2 5-3.2 27-2.2 27.78s13.59-20.58 20.39-21 26.95 14.01 26.95 14.01z" fill="#55fb9b" stroke="#263238" stroke-linecap="round" stroke-linejoin="round"/><rect x="180.83" y="169.71" width="2.42" height="24.62" rx="1.1" transform="rotate(31.48 182.034 182.015)" fill="#263238"/><path d="M87.36 204.08s-2.4 7.19.4 12.39 27.58 42.17 30.38 42.77 6.6-2.2 6.6-2.2l41.58-49.73s8.13-3.74 10.11-5.5 3.74-6.15 3.74-6.15 3.52-3.52 2.86-6.38-1.76-2.42-2.42-2.2-7.91.66-7.91.66 2.63-3.52 2-5.71-1.75-2.42-2.63-.66-2 3.73-3.08 5.71-5.94 5.5-5.94 7.7-2 9-2 9l-32.9 30.27s-12.2-20.19-12.6-21.79a27.38 27.38 0 00-5-12c-4-5.2-6-7.4-10.4-6.8" fill="#55fb9b" stroke="#263238" stroke-linecap="round" stroke-linejoin="round"/><path fill="none" stroke="#263238" stroke-linecap="round" stroke-linejoin="round" d="M133.73 229.26l8.2 7m-13.79-2.2s-5.4 2.6-7 5.19m-1-4.79s-5.2 7-2.4 9.79"/><path d="M180.61 187.08c-.66.22-7.91.66-7.91.66s2.63-3.52 2-5.71-1.75-2.42-2.63-.66-2 3.73-3.08 5.71-5.94 5.5-5.94 7.7-2 9-2 9L136.84 226l7.67 7.06 21.81-25.77s8.13-3.74 10.11-5.5 3.74-6.15 3.74-6.15 3.52-3.52 2.86-6.38-1.76-2.4-2.42-2.18zM84 455.67s-1 8.61 0 9.33 16.5 1.43 16.5 1.43h22.71a2 2 0 002.63-.48c1.2-1.43 1.2-5-1.19-6.45s-9.33-2.15-12.44-3.83-7.65-3.58-8.61-4.3-19.36-1.44-19.36-1.44z" fill="#fff" stroke="#263238" stroke-linecap="round" stroke-linejoin="round"/><path d="M125.86 466a3 3 0 00.54-1.07c-4.58.41-12.62.93-18 .12-6-.9-18.83-2.62-24.81-3.41 0 1.68.05 3.13.42 3.41 1 .72 16.5 1.43 16.5 1.43h22.71a2 2 0 002.64-.48z" fill="#fff" stroke="#263238" stroke-linecap="round" stroke-linejoin="round"/><path d="M92.86 336.11s-.71 19.85-2.39 34-2.87 33.71-5 43.76-2.39 26.78-2.39 26.78l1.2 9.32a6.06 6.06 0 00-.48 2.87 17.91 17.91 0 01.24 2.87s-.24.48 7.65.48 10-1.2 10-1.2 3.83-.47.48-21.52-3.83-43-3.83-59.06 1.44-32.52-2.87-41.13-2.61 2.83-2.61 2.83z" fill="#adadad" stroke="#263238" stroke-linecap="round" stroke-linejoin="round"/><path d="M124.43 450.17l6.69 6s13.87 6 14.59 6.93 0 2.64-.48 3.35-26.06.24-33 .48-10.76.24-11.71-.48-1-11.71-1-11.71 20.36-5.52 24.91-4.57z" fill="#fff" stroke="#263238" stroke-linecap="round" stroke-linejoin="round"/><path d="M145.23 466.43a4 4 0 00.7-2.87h-46c.14 1.5.34 2.66.63 2.87 1 .72 4.78.72 11.71.48s32.48.24 32.96-.48z" fill="#fff" stroke="#263238" stroke-linecap="round" stroke-linejoin="round"/><path d="M82.1 285.42s-.24 19.37 2.39 25.35 8.37 30.6 9.81 41.12-3.83 44.48-2.39 60 6.21 34.68 6.21 34.68-2.87 1.67-2.15 3.58 2.87 7.18 2.87 7.18a37.58 37.58 0 0010.52-1.2c4.79-1.43 17-5 17-5s0-4.07-2.15-6.46-4.78-4.3-5.26-6.93.71-30.85 3.11-60.74 7.17-67.91 7.41-69.58 3.08-22.59 3.08-22.59z" fill="#adadad" stroke="#263238" stroke-linecap="round" stroke-linejoin="round"/><path d="M116.76 262.07a67.23 67.23 0 01-19.62 14.81l1.46 2.51s15.44-8.14 19.2-15.45m-1.8 28.69c-.27 4.45-1.1 11.25-3.64 14.72-4 5.43-5.63 6-5.63 6m9.4-24.99v1.65M106 424.35c.53 7 1.23 12.36 2 13.85 2.3 4.38-.21 6.26 0 8.35s2.92 2.29 2.51 3.54a27.39 27.39 0 01-1.26 2.93M105.73 302c.54 7.34 1.2 16.51 1.64 22.71.83 11.9 0 45.7-1.67 58.23-1 7.3-.82 23.4-.06 36.43M104.86 290s.23 3.11.56 7.62" fill="none" stroke="#263238" stroke-linecap="round" stroke-linejoin="round"/></svg>